<?xml version="1.0" encoding="UTF-8" standalone="no"?>
<!DOCTYPE svg PUBLIC "-//W3C//DTD SVG 1.1//EN"
 "http://www.w3.org/Graphics/SVG/1.1/DTD/svg11.dtd">
<!-- Generated by graphviz version 2.38.0 (20140413.2041)
 -->
<!-- Title: G Pages: 1 -->
<svg width="331pt" height="307pt"
 viewBox="0.00 0.00 330.74 307.00" xmlns="http://www.w3.org/2000/svg" xmlns:xlink="http://www.w3.org/1999/xlink">
<g id="graph0" class="graph" transform="scale(1 1) rotate(0) translate(4 303)">
<title>G</title>
<polygon fill="white" stroke="none" points="-4,4 -4,-303 326.742,-303 326.742,4 -4,4"/>
<!-- A0 -->
<g id="node1" class="node"><title>A0</title>
<polygon fill="none" stroke="black" points="138.895,-178.5 138.895,-298.5 261.916,-298.5 261.916,-178.5 138.895,-178.5"/>
<text text-anchor="middle" x="200.405" y="-285.5" font-family="Helvetica,sans-Serif" font-size="10.00">Users</text>
<polyline fill="none" stroke="black" points="138.895,-278.5 261.916,-278.5 "/>
<text text-anchor="middle" x="200.405" y="-265.5" font-family="Helvetica,sans-Serif" font-size="10.00">username:String</text>
<text text-anchor="middle" x="200.405" y="-253.5" font-family="Helvetica,sans-Serif" font-size="10.00">password:String</text>
<text text-anchor="middle" x="200.405" y="-241.5" font-family="Helvetica,sans-Serif" font-size="10.00">name:String</text>
<text text-anchor="middle" x="200.405" y="-229.5" font-family="Helvetica,sans-Serif" font-size="10.00"> phoneNumber:String</text>
<text text-anchor="middle" x="200.405" y="-217.5" font-family="Helvetica,sans-Serif" font-size="10.00"> address:String</text>
<text text-anchor="middle" x="200.405" y="-205.5" font-family="Helvetica,sans-Serif" font-size="10.00"> userID:integer</text>
<polyline fill="none" stroke="black" points="138.895,-198.5 261.916,-198.5 "/>
<text text-anchor="middle" x="200.405" y="-185.5" font-family="Helvetica,sans-Serif" font-size="10.00"> </text>
</g>
<!-- A2 -->
<g id="node3" class="node"><title>A2</title>
<polygon fill="none" stroke="black" points="117.67,-87.5 117.67,-127.5 195.14,-127.5 195.14,-87.5 117.67,-87.5"/>
<text text-anchor="middle" x="156.405" y="-114.5" font-family="Helvetica,sans-Serif" font-size="10.00">Student</text>
<polyline fill="none" stroke="black" points="117.67,-107.5 195.14,-107.5 "/>
<text text-anchor="middle" x="156.405" y="-94.5" font-family="Helvetica,sans-Serif" font-size="10.00">gpa:double</text>
</g>
<!-- A0&#45;&gt;A2 -->
<g id="edge2" class="edge"><title>A0&#45;&gt;A2</title>
<path fill="none" stroke="black" d="M176.84,-168.41C171.721,-153.404 166.716,-138.73 162.941,-127.66"/>
<polygon fill="none" stroke="black" points="173.667,-169.951 180.208,-178.286 180.293,-167.691 173.667,-169.951"/>
</g>
<!-- A4 -->
<g id="node5" class="node"><title>A4</title>
<polygon fill="none" stroke="black" points="213.293,-89.5 213.293,-125.5 273.518,-125.5 273.518,-89.5 213.293,-89.5"/>
<text text-anchor="middle" x="243.405" y="-104.5" font-family="Helvetica,sans-Serif" font-size="10.00">Faculty</text>
</g>
<!-- A0&#45;&gt;A4 -->
<g id="edge1" class="edge"><title>A0&#45;&gt;A4</title>
<path fill="none" stroke="black" d="M223.452,-168.361C228.758,-152.443 233.937,-136.904 237.689,-125.649"/>
<polygon fill="none" stroke="black" points="219.986,-167.692 220.144,-178.286 226.626,-169.906 219.986,-167.692"/>
</g>
<!-- A1 -->
<g id="node2" class="node"><title>A1</title>
<polygon fill="none" stroke="black" points="152.962,-0.5 152.962,-36.5 239.849,-36.5 239.849,-0.5 152.962,-0.5"/>
<text text-anchor="middle" x="196.405" y="-15.5" font-family="Helvetica,sans-Serif" font-size="10.00">Administrator</text>
</g>
<!-- A3 -->
<g id="node4" class="node"><title>A3</title>
<polygon fill="none" stroke="black" points="258.068,-0.5 258.068,-36.5 322.742,-36.5 322.742,-0.5 258.068,-0.5"/>
<text text-anchor="middle" x="290.405" y="-15.5" font-family="Helvetica,sans-Serif" font-size="10.00">Teacher</text>
</g>
<!-- A4&#45;&gt;A1 -->
<g id="edge3" class="edge"><title>A4&#45;&gt;A1</title>
<path fill="none" stroke="black" d="M229.36,-80.5003C221.698,-66.3173 212.426,-49.1555 205.672,-36.6527"/>
<polygon fill="none" stroke="black" points="226.287,-82.177 234.12,-89.3116 232.446,-78.8498 226.287,-82.177"/>
</g>
<!-- A4&#45;&gt;A3 -->
<g id="edge4" class="edge"><title>A4&#45;&gt;A3</title>
<path fill="none" stroke="black" d="M257.451,-80.5003C265.113,-66.3173 274.385,-49.1555 281.139,-36.6527"/>
<polygon fill="none" stroke="black" points="254.365,-78.8498 252.691,-89.3116 260.524,-82.177 254.365,-78.8498"/>
</g>
<!-- A5 -->
<g id="node6" class="node"><title>A5</title>
<polygon fill="cornsilk" stroke="black" points="114.717,-266.5 0.0943524,-266.5 0.0943524,-210.5 120.717,-210.5 120.717,-260.5 114.717,-266.5"/>
<polyline fill="none" stroke="black" points="114.717,-266.5 114.717,-260.5 "/>
<polyline fill="none" stroke="black" points="120.717,-260.5 114.717,-260.5 "/>
<text text-anchor="middle" x="60.4055" y="-253.5" font-family="Helvetica,sans-Serif" font-size="10.00">Does Faculty/Staff</text>
<text text-anchor="middle" x="60.4055" y="-241.5" font-family="Helvetica,sans-Serif" font-size="10.00">need an ID or should</text>
<text text-anchor="middle" x="60.4055" y="-229.5" font-family="Helvetica,sans-Serif" font-size="10.00">it only be</text>
<text text-anchor="middle" x="60.4055" y="-217.5" font-family="Helvetica,sans-Serif" font-size="10.00">students?</text>
</g>
<!-- A5&#45;&gt;A0 -->
<g id="edge5" class="edge"><title>A5&#45;&gt;A0</title>
<path fill="none" stroke="black" stroke-dasharray="5,2" d="M120.835,-238.5C123.464,-238.5 126.093,-238.5 128.722,-238.5"/>
<polygon fill="black" stroke="black" points="138.863,-238.5 128.863,-243 133.863,-238.5 128.863,-238.5 128.863,-238.5 128.863,-238.5 133.863,-238.5 128.863,-234 138.863,-238.5 138.863,-238.5"/>
</g>
</g>
</svg>
