<?xml version="1.0" encoding="UTF-8" standalone="no"?>
<!DOCTYPE svg PUBLIC "-//W3C//DTD SVG 1.1//EN"
 "http://www.w3.org/Graphics/SVG/1.1/DTD/svg11.dtd">
<!-- Generated by graphviz version 2.38.0 (20140413.2041)
 -->
<!-- Title: G Pages: 1 -->
<svg width="523pt" height="1144pt"
 viewBox="0.00 0.00 522.69 1144.00" xmlns="http://www.w3.org/2000/svg" xmlns:xlink="http://www.w3.org/1999/xlink">
<g id="graph0" class="graph" transform="scale(1 1) rotate(0) translate(4 1140)">
<title>G</title>
<polygon fill="white" stroke="none" points="-4,4 -4,-1140 518.686,-1140 518.686,4 -4,4"/>
<!-- A0 -->
<g id="node1" class="node"><title>A0</title>
<g transform="translate(58.7285,-934)" style="fill:none;stroke:black;stroke-width:1px"><circle cx="0" cy="-20" r="7.5" />
                <line x1="0" y1="-12.5" x2="0" y2="5" />
                <line x1="-15" y1="-5" x2="15" y2="-5" />
                <line x1="0" y1="5" x2="-15" y2="17" />
                <line x1="0" y1="5" x2="15" y2="17" /></g>
<text text-anchor="middle" x="58.7285" y="-909" font-family="Helvetica,sans-Serif" font-size="10.00">Student</text>
</g>
<!-- A3 -->
<g id="node4" class="node"><title>A3</title>
<ellipse fill="none" stroke="black" cx="240.762" cy="-838" rx="31.5864" ry="18"/>
<text text-anchor="middle" x="240.762" y="-835" font-family="Helvetica,sans-Serif" font-size="10.00">Login</text>
</g>
<!-- A0&#45;&gt;A3 -->
<g id="edge1" class="edge"><title>A0&#45;&gt;A3</title>
<path fill="none" stroke="black" d="M105.483,-903.005C124.115,-890.081 146.233,-875.869 167.457,-865 181.888,-857.61 198.831,-851.174 212.687,-846.441"/>
</g>
<!-- A4 -->
<g id="node5" class="node"><title>A4</title>
<ellipse fill="none" stroke="black" cx="240.762" cy="-1000" rx="60.039" ry="18"/>
<text text-anchor="middle" x="240.762" y="-997" font-family="Helvetica,sans-Serif" font-size="10.00">Enroll in a Class</text>
</g>
<!-- A0&#45;&gt;A4 -->
<g id="edge4" class="edge"><title>A0&#45;&gt;A4</title>
<path fill="none" stroke="black" d="M105.624,-953.061C135.107,-963.378 172.979,-976.63 200.958,-986.421"/>
</g>
<!-- A5 -->
<g id="node6" class="node"><title>A5</title>
<ellipse fill="none" stroke="black" cx="240.762" cy="-892" rx="73.1115" ry="18"/>
<text text-anchor="middle" x="240.762" y="-889" font-family="Helvetica,sans-Serif" font-size="10.00">View Class Schedule</text>
</g>
<!-- A0&#45;&gt;A5 -->
<g id="edge5" class="edge"><title>A0&#45;&gt;A5</title>
<path fill="none" stroke="black" d="M105.624,-925.528C131.044,-919.174 162.7,-911.262 188.875,-904.719"/>
</g>
<!-- A6 -->
<g id="node7" class="node"><title>A6</title>
<ellipse fill="none" stroke="black" cx="240.762" cy="-946" rx="55.0281" ry="18"/>
<text text-anchor="middle" x="240.762" y="-943" font-family="Helvetica,sans-Serif" font-size="10.00">Check Grades</text>
</g>
<!-- A0&#45;&gt;A6 -->
<g id="edge6" class="edge"><title>A0&#45;&gt;A6</title>
<path fill="none" stroke="black" d="M105.624,-939.294C130.107,-940.518 160.373,-942.031 185.957,-943.31"/>
</g>
<!-- A1 -->
<g id="node2" class="node"><title>A1</title>
<g transform="translate(58.7285,-835)" style="fill:none;stroke:black;stroke-width:1px"><circle cx="0" cy="-20" r="7.5" />
                <line x1="0" y1="-12.5" x2="0" y2="5" />
                <line x1="-15" y1="-5" x2="15" y2="-5" />
                <line x1="0" y1="5" x2="-15" y2="17" />
                <line x1="0" y1="5" x2="15" y2="17" /></g>
<text text-anchor="middle" x="58.7285" y="-810" font-family="Helvetica,sans-Serif" font-size="10.00">Teacher</text>
</g>
<!-- A1&#45;&gt;A3 -->
<g id="edge2" class="edge"><title>A1&#45;&gt;A3</title>
<path fill="none" stroke="black" d="M106.56,-838C138.858,-838 180.876,-838 209.004,-838"/>
</g>
<!-- A1&#45;&gt;A5 -->
<g id="edge18" class="edge"><title>A1&#45;&gt;A5</title>
<path fill="none" stroke="black" d="M106.56,-852.047C133.336,-860.078 166.793,-870.113 193.477,-878.117"/>
</g>
<!-- A17 -->
<g id="node18" class="node"><title>A17</title>
<ellipse fill="none" stroke="black" cx="240.762" cy="-784" rx="55.0269" ry="18"/>
<text text-anchor="middle" x="240.762" y="-781" font-family="Helvetica,sans-Serif" font-size="10.00">Manage Class</text>
</g>
<!-- A1&#45;&gt;A17 -->
<g id="edge17" class="edge"><title>A1&#45;&gt;A17</title>
<path fill="none" stroke="black" d="M106.56,-823.953C135.42,-815.297 172.04,-804.313 199.577,-796.053"/>
</g>
<!-- A2 -->
<g id="node3" class="node"><title>A2</title>
<g transform="translate(58.7285,-515)" style="fill:none;stroke:black;stroke-width:1px"><circle cx="0" cy="-20" r="7.5" />
                <line x1="0" y1="-12.5" x2="0" y2="5" />
                <line x1="-15" y1="-5" x2="15" y2="-5" />
                <line x1="0" y1="5" x2="-15" y2="17" />
                <line x1="0" y1="5" x2="15" y2="17" /></g>
<text text-anchor="middle" x="58.7285" y="-490" font-family="Helvetica,sans-Serif" font-size="10.00">Administrator</text>
</g>
<!-- A2&#45;&gt;A3 -->
<g id="edge3" class="edge"><title>A2&#45;&gt;A3</title>
<path fill="none" stroke="black" d="M63.3449,-554.235C71.3098,-615.271 95.7824,-738.963 167.457,-811 178.893,-822.494 195.672,-829.154 210.188,-832.983"/>
</g>
<!-- A7 -->
<g id="node8" class="node"><title>A7</title>
<ellipse fill="none" stroke="black" cx="240.762" cy="-261" rx="65.9287" ry="18"/>
<text text-anchor="middle" x="240.762" y="-258" font-family="Helvetica,sans-Serif" font-size="10.00">Manage Database</text>
</g>
<!-- A2&#45;&gt;A7 -->
<g id="edge7" class="edge"><title>A2&#45;&gt;A7</title>
<path fill="none" stroke="black" d="M84.951,-481.995C124.047,-426.184 197.833,-320.854 227.222,-278.901"/>
</g>
<!-- A8 -->
<g id="node9" class="node"><title>A8</title>
<ellipse fill="none" stroke="black" cx="439.377" cy="-450" rx="44.4737" ry="18"/>
<text text-anchor="middle" x="439.377" y="-447" font-family="Helvetica,sans-Serif" font-size="10.00">Add Class</text>
</g>
<!-- A7&#45;&gt;A8 -->
<g id="edge8" class="edge"><title>A7&#45;&gt;A8</title>
<path fill="none" stroke="black" stroke-dasharray="5,2" d="M250.805,-279.032C268.278,-312.141 309.79,-382.898 364.068,-423 372.182,-428.995 381.762,-433.773 391.298,-437.539"/>
<polygon fill="black" stroke="black" points="400.763,-440.975 389.828,-441.793 396.063,-439.269 391.363,-437.563 391.363,-437.563 391.363,-437.563 396.063,-439.269 392.899,-433.333 400.763,-440.975 400.763,-440.975"/>
</g>
<!-- A9 -->
<g id="node10" class="node"><title>A9</title>
<ellipse fill="none" stroke="black" cx="439.377" cy="-396" rx="51.0172" ry="18"/>
<text text-anchor="middle" x="439.377" y="-393" font-family="Helvetica,sans-Serif" font-size="10.00">Add Teacher</text>
</g>
<!-- A7&#45;&gt;A9 -->
<g id="edge9" class="edge"><title>A7&#45;&gt;A9</title>
<path fill="none" stroke="black" stroke-dasharray="5,2" d="M257.571,-278.59C279.469,-302.041 321.202,-343.541 364.068,-369 371.955,-373.684 380.788,-377.763 389.535,-381.232"/>
<polygon fill="black" stroke="black" points="398.945,-384.759 388.002,-385.463 394.263,-383.004 389.581,-381.25 389.581,-381.25 389.581,-381.25 394.263,-383.004 391.16,-377.036 398.945,-384.759 398.945,-384.759"/>
</g>
<!-- A10 -->
<g id="node11" class="node"><title>A10</title>
<ellipse fill="none" stroke="black" cx="439.377" cy="-342" rx="49.8571" ry="18"/>
<text text-anchor="middle" x="439.377" y="-339" font-family="Helvetica,sans-Serif" font-size="10.00">Add Student</text>
</g>
<!-- A7&#45;&gt;A10 -->
<g id="edge10" class="edge"><title>A7&#45;&gt;A10</title>
<path fill="none" stroke="black" stroke-dasharray="5,2" d="M274.988,-276.394C299.441,-287.546 333.593,-302.752 364.068,-315 373.429,-318.762 383.54,-322.59 393.199,-326.135"/>
<polygon fill="black" stroke="black" points="402.663,-329.573 391.727,-330.388 397.963,-327.866 393.264,-326.158 393.264,-326.158 393.264,-326.158 397.963,-327.866 394.8,-321.929 402.663,-329.573 402.663,-329.573"/>
</g>
<!-- A11 -->
<g id="node12" class="node"><title>A11</title>
<ellipse fill="none" stroke="black" cx="439.377" cy="-288" rx="52.8476" ry="18"/>
<text text-anchor="middle" x="439.377" y="-285" font-family="Helvetica,sans-Serif" font-size="10.00">Update Class</text>
</g>
<!-- A7&#45;&gt;A11 -->
<g id="edge11" class="edge"><title>A7&#45;&gt;A11</title>
<path fill="none" stroke="black" stroke-dasharray="5,2" d="M299.955,-268.991C325.135,-272.449 354.552,-276.489 379.777,-279.953"/>
<polygon fill="black" stroke="black" points="389.943,-281.349 379.423,-284.446 384.989,-280.668 380.036,-279.988 380.036,-279.988 380.036,-279.988 384.989,-280.668 380.648,-275.53 389.943,-281.349 389.943,-281.349"/>
</g>
<!-- A12 -->
<g id="node13" class="node"><title>A12</title>
<ellipse fill="none" stroke="black" cx="439.377" cy="-234" rx="59.8912" ry="18"/>
<text text-anchor="middle" x="439.377" y="-231" font-family="Helvetica,sans-Serif" font-size="10.00">Update Teacher</text>
</g>
<!-- A7&#45;&gt;A12 -->
<g id="edge12" class="edge"><title>A7&#45;&gt;A12</title>
<path fill="none" stroke="black" stroke-dasharray="5,2" d="M299.955,-253.009C323.339,-249.798 350.377,-246.085 374.318,-242.797"/>
<polygon fill="black" stroke="black" points="384.369,-241.417 375.074,-247.235 379.415,-242.097 374.462,-242.777 374.462,-242.777 374.462,-242.777 379.415,-242.097 373.85,-238.319 384.369,-241.417 384.369,-241.417"/>
</g>
<!-- A13 -->
<g id="node14" class="node"><title>A13</title>
<ellipse fill="none" stroke="black" cx="439.377" cy="-180" rx="58.7322" ry="18"/>
<text text-anchor="middle" x="439.377" y="-177" font-family="Helvetica,sans-Serif" font-size="10.00">Update Student</text>
</g>
<!-- A7&#45;&gt;A13 -->
<g id="edge13" class="edge"><title>A7&#45;&gt;A13</title>
<path fill="none" stroke="black" stroke-dasharray="5,2" d="M274.988,-245.606C299.441,-234.454 333.593,-219.248 364.068,-207 372.579,-203.579 381.711,-200.105 390.558,-196.837"/>
<polygon fill="black" stroke="black" points="400.005,-193.385 392.157,-201.044 395.309,-195.101 390.612,-196.818 390.612,-196.818 390.612,-196.818 395.309,-195.101 389.068,-192.591 400.005,-193.385 400.005,-193.385"/>
</g>
<!-- A14 -->
<g id="node15" class="node"><title>A14</title>
<ellipse fill="none" stroke="black" cx="439.377" cy="-126" rx="55.8501" ry="18"/>
<text text-anchor="middle" x="439.377" y="-123" font-family="Helvetica,sans-Serif" font-size="10.00">Remove Class</text>
</g>
<!-- A7&#45;&gt;A14 -->
<g id="edge14" class="edge"><title>A7&#45;&gt;A14</title>
<path fill="none" stroke="black" stroke-dasharray="5,2" d="M257.571,-243.41C279.469,-219.959 321.202,-178.459 364.068,-153 371.363,-148.667 379.467,-144.853 387.565,-141.559"/>
<polygon fill="black" stroke="black" points="397.019,-137.932 389.295,-145.715 392.351,-139.723 387.682,-141.514 387.682,-141.514 387.682,-141.514 392.351,-139.723 386.07,-137.313 397.019,-137.932 397.019,-137.932"/>
</g>
<!-- A15 -->
<g id="node16" class="node"><title>A15</title>
<ellipse fill="none" stroke="black" cx="439.377" cy="-72" rx="62.8937" ry="18"/>
<text text-anchor="middle" x="439.377" y="-69" font-family="Helvetica,sans-Serif" font-size="10.00">Remove Teacher</text>
</g>
<!-- A7&#45;&gt;A15 -->
<g id="edge15" class="edge"><title>A7&#45;&gt;A15</title>
<path fill="none" stroke="black" stroke-dasharray="5,2" d="M250.805,-242.968C268.278,-209.859 309.79,-139.102 364.068,-99 369.836,-94.7382 376.345,-91.0913 383.053,-87.9859"/>
<polygon fill="black" stroke="black" points="392.271,-84.0799 384.819,-92.1248 387.667,-86.0307 383.063,-87.9814 383.063,-87.9814 383.063,-87.9814 387.667,-86.0307 381.308,-83.838 392.271,-84.0799 392.271,-84.0799"/>
</g>
<!-- A16 -->
<g id="node17" class="node"><title>A16</title>
<ellipse fill="none" stroke="black" cx="439.377" cy="-18" rx="61.7348" ry="18"/>
<text text-anchor="middle" x="439.377" y="-15" font-family="Helvetica,sans-Serif" font-size="10.00">Remove Student</text>
</g>
<!-- A7&#45;&gt;A16 -->
<g id="edge16" class="edge"><title>A7&#45;&gt;A16</title>
<path fill="none" stroke="black" stroke-dasharray="5,2" d="M247.213,-242.813C260.44,-201.69 298.097,-100.798 364.068,-45 369.349,-40.5333 375.43,-36.779 381.792,-33.6296"/>
<polygon fill="black" stroke="black" points="391.253,-29.4356 383.934,-37.6022 386.682,-31.462 382.111,-33.4883 382.111,-33.4883 382.111,-33.4883 386.682,-31.462 380.287,-29.3744 391.253,-29.4356 391.253,-29.4356"/>
</g>
<!-- A18 -->
<g id="node19" class="node"><title>A18</title>
<ellipse fill="none" stroke="black" cx="439.377" cy="-946" rx="49.4883" ry="18"/>
<text text-anchor="middle" x="439.377" y="-943" font-family="Helvetica,sans-Serif" font-size="10.00">View Roster</text>
</g>
<!-- A17&#45;&gt;A18 -->
<g id="edge19" class="edge"><title>A17&#45;&gt;A18</title>
<path fill="none" stroke="black" stroke-dasharray="5,2" d="M286.148,-794.407C296.195,-798.345 306.205,-803.714 314.068,-811 352.868,-846.95 325.109,-883.222 364.068,-919 370.605,-925.004 378.581,-929.697 386.852,-933.359"/>
<polygon fill="black" stroke="black" points="396.254,-937.07 385.3,-937.584 391.603,-935.234 386.952,-933.399 386.952,-933.399 386.952,-933.399 391.603,-935.234 388.605,-929.213 396.254,-937.07 396.254,-937.07"/>
</g>
<!-- A19 -->
<g id="node20" class="node"><title>A19</title>
<ellipse fill="none" stroke="black" cx="439.377" cy="-892" rx="51.0052" ry="18"/>
<text text-anchor="middle" x="439.377" y="-889" font-family="Helvetica,sans-Serif" font-size="10.00">View Grades</text>
</g>
<!-- A17&#45;&gt;A19 -->
<g id="edge20" class="edge"><title>A17&#45;&gt;A19</title>
<path fill="none" stroke="black" stroke-dasharray="5,2" d="M283.161,-795.698C293.72,-799.67 304.719,-804.732 314.068,-811 341.235,-829.214 336.82,-846.906 364.068,-865 371.545,-869.965 380.051,-874.155 388.572,-877.643"/>
<polygon fill="black" stroke="black" points="398.145,-881.285 387.198,-881.935 393.472,-879.507 388.798,-877.729 388.798,-877.729 388.798,-877.729 393.472,-879.507 390.399,-873.523 398.145,-881.285 398.145,-881.285"/>
</g>
<!-- A20 -->
<g id="node21" class="node"><title>A20</title>
<ellipse fill="none" stroke="black" cx="439.377" cy="-838" rx="65.9059" ry="18"/>
<text text-anchor="middle" x="439.377" y="-835" font-family="Helvetica,sans-Serif" font-size="10.00">View Assignments</text>
</g>
<!-- A17&#45;&gt;A20 -->
<g id="edge21" class="edge"><title>A17&#45;&gt;A20</title>
<path fill="none" stroke="black" stroke-dasharray="5,2" d="M283.459,-795.452C312.245,-803.358 350.853,-813.962 382.326,-822.606"/>
<polygon fill="black" stroke="black" points="392.272,-825.337 381.437,-827.028 387.45,-824.013 382.629,-822.689 382.629,-822.689 382.629,-822.689 387.45,-824.013 383.821,-818.349 392.272,-825.337 392.272,-825.337"/>
</g>
<!-- A21 -->
<g id="node22" class="node"><title>A21</title>
<ellipse fill="none" stroke="black" cx="439.377" cy="-784" rx="61.9069" ry="18"/>
<text text-anchor="middle" x="439.377" y="-781" font-family="Helvetica,sans-Serif" font-size="10.00">View Attendance</text>
</g>
<!-- A17&#45;&gt;A21 -->
<g id="edge22" class="edge"><title>A17&#45;&gt;A21</title>
<path fill="none" stroke="black" stroke-dasharray="5,2" d="M296.27,-784C318.148,-784 343.664,-784 366.99,-784"/>
<polygon fill="black" stroke="black" points="377.182,-784 367.182,-788.5 372.182,-784 367.182,-784 367.182,-784 367.182,-784 372.182,-784 367.182,-779.5 377.182,-784 377.182,-784"/>
</g>
<!-- A22 -->
<g id="node23" class="node"><title>A22</title>
<ellipse fill="none" stroke="black" cx="439.377" cy="-730" rx="48.839" ry="18"/>
<text text-anchor="middle" x="439.377" y="-727" font-family="Helvetica,sans-Serif" font-size="10.00">Add Grades</text>
</g>
<!-- A17&#45;&gt;A22 -->
<g id="edge23" class="edge"><title>A17&#45;&gt;A22</title>
<path fill="none" stroke="black" stroke-dasharray="5,2" d="M283.459,-772.548C314.617,-763.991 357.283,-752.272 389.951,-743.3"/>
<polygon fill="black" stroke="black" points="399.745,-740.61 391.294,-747.598 394.924,-741.935 390.102,-743.259 390.102,-743.259 390.102,-743.259 394.924,-741.935 388.91,-738.919 399.745,-740.61 399.745,-740.61"/>
</g>
<!-- A23 -->
<g id="node24" class="node"><title>A23</title>
<ellipse fill="none" stroke="black" cx="439.377" cy="-676" rx="63.7409" ry="18"/>
<text text-anchor="middle" x="439.377" y="-673" font-family="Helvetica,sans-Serif" font-size="10.00">Add Assignments</text>
</g>
<!-- A17&#45;&gt;A23 -->
<g id="edge24" class="edge"><title>A17&#45;&gt;A23</title>
<path fill="none" stroke="black" stroke-dasharray="5,2" d="M263.345,-767.417C287.064,-749.751 326.768,-721.794 364.068,-703 371.301,-699.355 379.148,-695.957 386.941,-692.884"/>
<polygon fill="black" stroke="black" points="396.375,-689.302 388.623,-697.058 391.701,-691.077 387.026,-692.851 387.026,-692.851 387.026,-692.851 391.701,-691.077 385.429,-688.644 396.375,-689.302 396.375,-689.302"/>
</g>
<!-- A24 -->
<g id="node25" class="node"><title>A24</title>
<ellipse fill="none" stroke="black" cx="439.377" cy="-617" rx="55.6304" ry="22.7556"/>
<text text-anchor="middle" x="439.377" y="-620" font-family="Helvetica,sans-Serif" font-size="10.00">Add Class</text>
<text text-anchor="middle" x="439.377" y="-608" font-family="Helvetica,sans-Serif" font-size="10.00">Attendance</text>
</g>
<!-- A17&#45;&gt;A24 -->
<g id="edge25" class="edge"><title>A17&#45;&gt;A24</title>
<path fill="none" stroke="black" stroke-dasharray="5,2" d="M253.784,-766.459C273.796,-738.375 316.473,-683.026 364.068,-649 371.049,-644.009 378.93,-639.578 386.884,-635.724"/>
<polygon fill="black" stroke="black" points="396.205,-631.465 388.98,-639.714 391.657,-633.543 387.11,-635.621 387.11,-635.621 387.11,-635.621 391.657,-633.543 385.239,-631.528 396.205,-631.465 396.205,-631.465"/>
</g>
<!-- A25 -->
<g id="node26" class="node"><title>A25</title>
<ellipse fill="none" stroke="black" cx="439.377" cy="-558" rx="60.7167" ry="18"/>
<text text-anchor="middle" x="439.377" y="-555" font-family="Helvetica,sans-Serif" font-size="10.00">Remove Grades</text>
</g>
<!-- A17&#45;&gt;A25 -->
<g id="edge26" class="edge"><title>A17&#45;&gt;A25</title>
<path fill="none" stroke="black" stroke-dasharray="5,2" d="M248.06,-766.091C262.511,-727.498 301.685,-635.872 364.068,-585 369.699,-580.408 376.179,-576.56 382.916,-573.346"/>
<polygon fill="black" stroke="black" points="392.206,-569.344 384.802,-577.433 387.613,-571.322 383.021,-573.3 383.021,-573.3 383.021,-573.3 387.613,-571.322 381.241,-569.167 392.206,-569.344 392.206,-569.344"/>
</g>
<!-- A26 -->
<g id="node27" class="node"><title>A26</title>
<ellipse fill="none" stroke="black" cx="439.377" cy="-504" rx="75.1188" ry="18"/>
<text text-anchor="middle" x="439.377" y="-501" font-family="Helvetica,sans-Serif" font-size="10.00">Remove Assignments</text>
</g>
<!-- A17&#45;&gt;A26 -->
<g id="edge27" class="edge"><title>A17&#45;&gt;A26</title>
<path fill="none" stroke="black" stroke-dasharray="5,2" d="M245.553,-765.858C256.065,-719.944 289.842,-598.031 364.068,-531 367.979,-527.468 372.388,-524.389 377.058,-521.705"/>
<polygon fill="black" stroke="black" points="386.297,-517.017 379.415,-525.555 381.838,-519.279 377.379,-521.542 377.379,-521.542 377.379,-521.542 381.838,-519.279 375.343,-517.529 386.297,-517.017 386.297,-517.017"/>
</g>
<!-- A27 -->
<g id="node28" class="node"><title>A27</title>
<ellipse fill="none" stroke="black" cx="439.377" cy="-1118" rx="57.7141" ry="18"/>
<text text-anchor="middle" x="439.377" y="-1115" font-family="Helvetica,sans-Serif" font-size="10.00">Update Grades</text>
</g>
<!-- A17&#45;&gt;A27 -->
<g id="edge28" class="edge"><title>A17&#45;&gt;A27</title>
<path fill="none" stroke="black" stroke-dasharray="5,2" d="M288.313,-793.366C298.047,-797.331 307.374,-802.973 314.068,-811 395.027,-908.087 282.679,-994.273 364.068,-1091 368.581,-1096.36 374.249,-1100.66 380.434,-1104.1"/>
<polygon fill="black" stroke="black" points="389.788,-1108.56 378.825,-1108.32 385.275,-1106.41 380.762,-1104.26 380.762,-1104.26 380.762,-1104.26 385.275,-1106.41 382.698,-1100.2 389.788,-1108.56 389.788,-1108.56"/>
</g>
<!-- A28 -->
<g id="node29" class="node"><title>A28</title>
<ellipse fill="none" stroke="black" cx="439.377" cy="-1064" rx="72.1162" ry="18"/>
<text text-anchor="middle" x="439.377" y="-1061" font-family="Helvetica,sans-Serif" font-size="10.00">Update Assignments</text>
</g>
<!-- A17&#45;&gt;A28 -->
<g id="edge29" class="edge"><title>A17&#45;&gt;A28</title>
<path fill="none" stroke="black" stroke-dasharray="5,2" d="M288.076,-793.567C297.82,-797.524 307.211,-803.112 314.068,-811 381.558,-888.64 296.234,-959.66 364.068,-1037 367.487,-1040.9 371.516,-1044.23 375.9,-1047.09"/>
<polygon fill="black" stroke="black" points="384.7,-1052.01 373.776,-1051.06 380.335,-1049.57 375.971,-1047.13 375.971,-1047.13 375.971,-1047.13 380.335,-1049.57 378.166,-1043.2 384.7,-1052.01 384.7,-1052.01"/>
</g>
<!-- A29 -->
<g id="node30" class="node"><title>A29</title>
<ellipse fill="none" stroke="black" cx="439.377" cy="-1005" rx="62.4658" ry="22.7556"/>
<text text-anchor="middle" x="439.377" y="-1008" font-family="Helvetica,sans-Serif" font-size="10.00">Update Class</text>
<text text-anchor="middle" x="439.377" y="-996" font-family="Helvetica,sans-Serif" font-size="10.00">Attendance</text>
</g>
<!-- A17&#45;&gt;A29 -->
<g id="edge30" class="edge"><title>A17&#45;&gt;A29</title>
<path fill="none" stroke="black" stroke-dasharray="5,2" d="M287.242,-793.832C297.136,-797.782 306.803,-803.301 314.068,-811 365.782,-865.804 313.719,-916.939 364.068,-973 368.734,-978.196 374.391,-982.58 380.477,-986.273"/>
<polygon fill="black" stroke="black" points="389.637,-991.202 378.698,-990.426 385.234,-988.832 380.831,-986.463 380.831,-986.463 380.831,-986.463 385.234,-988.832 382.963,-982.5 389.637,-991.202 389.637,-991.202"/>
</g>
</g>
</svg>
