<?xml version="1.0" encoding="UTF-8" standalone="no"?>
<!DOCTYPE svg PUBLIC "-//W3C//DTD SVG 1.1//EN"
 "http://www.w3.org/Graphics/SVG/1.1/DTD/svg11.dtd">
<!-- Generated by graphviz version 2.38.0 (20140413.2041)
 -->
<!-- Title: G Pages: 1 -->
<svg width="519pt" height="1409pt"
 viewBox="0.00 0.00 519.34 1409.00" xmlns="http://www.w3.org/2000/svg" xmlns:xlink="http://www.w3.org/1999/xlink">
<g id="graph0" class="graph" transform="scale(1 1) rotate(0) translate(4 1405)">
<title>G</title>
<polygon fill="white" stroke="none" points="-4,4 -4,-1405 515.344,-1405 515.344,4 -4,4"/>
<!-- A0 -->
<g id="node1" class="node"><title>A0</title>
<g transform="translate(58.7285,-150)" style="fill:none;stroke:black;stroke-width:1px"><circle cx="0" cy="-20" r="7.5" />
                <line x1="0" y1="-12.5" x2="0" y2="5" />
                <line x1="-15" y1="-5" x2="15" y2="-5" />
                <line x1="0" y1="5" x2="-15" y2="17" />
                <line x1="0" y1="5" x2="15" y2="17" /></g>
<text text-anchor="middle" x="58.7285" y="-125" font-family="Helvetica,sans-Serif" font-size="10.00">Student</text>
</g>
<!-- A3 -->
<g id="node4" class="node"><title>A3</title>
<ellipse fill="none" stroke="black" cx="239.091" cy="-396" rx="31.5864" ry="18"/>
<text text-anchor="middle" x="239.091" y="-393" font-family="Helvetica,sans-Serif" font-size="10.00">Login</text>
</g>
<!-- A0&#45;&gt;A3 -->
<g id="edge1" class="edge"><title>A0&#45;&gt;A3</title>
<path fill="none" stroke="black" d="M68.9439,-189.393C82.7403,-236.887 113.136,-319.734 167.457,-369 179.029,-379.495 195.106,-386.067 208.998,-390.096"/>
</g>
<!-- A4 -->
<g id="node5" class="node"><title>A4</title>
<ellipse fill="none" stroke="black" cx="239.091" cy="-126" rx="60.039" ry="18"/>
<text text-anchor="middle" x="239.091" y="-123" font-family="Helvetica,sans-Serif" font-size="10.00">Enroll in a Class</text>
</g>
<!-- A0&#45;&gt;A4 -->
<g id="edge4" class="edge"><title>A0&#45;&gt;A4</title>
<path fill="none" stroke="black" d="M105.661,-146.047C129.918,-142.375 159.806,-137.851 185.046,-134.03"/>
</g>
<!-- A5 -->
<g id="node6" class="node"><title>A5</title>
<ellipse fill="none" stroke="black" cx="239.091" cy="-180" rx="53.844" ry="18"/>
<text text-anchor="middle" x="239.091" y="-177" font-family="Helvetica,sans-Serif" font-size="10.00">View Courses</text>
</g>
<!-- A0&#45;&gt;A5 -->
<g id="edge5" class="edge"><title>A0&#45;&gt;A5</title>
<path fill="none" stroke="black" d="M105.661,-159.953C131.363,-163.844 163.387,-168.692 189.506,-172.645"/>
</g>
<!-- A6 -->
<g id="node7" class="node"><title>A6</title>
<ellipse fill="none" stroke="black" cx="239.091" cy="-72" rx="55.0281" ry="18"/>
<text text-anchor="middle" x="239.091" y="-69" font-family="Helvetica,sans-Serif" font-size="10.00">Check Grades</text>
</g>
<!-- A0&#45;&gt;A6 -->
<g id="edge6" class="edge"><title>A0&#45;&gt;A6</title>
<path fill="none" stroke="black" d="M105.381,-128.855C124.375,-119.141 146.779,-108.108 167.457,-99 178.27,-94.2374 190.21,-89.4864 201.149,-85.3275"/>
</g>
<!-- A7 -->
<g id="node8" class="node"><title>A7</title>
<ellipse fill="none" stroke="black" cx="239.091" cy="-234" rx="60.8636" ry="18"/>
<text text-anchor="middle" x="239.091" y="-231" font-family="Helvetica,sans-Serif" font-size="10.00">View Class Files</text>
</g>
<!-- A0&#45;&gt;A7 -->
<g id="edge7" class="edge"><title>A0&#45;&gt;A7</title>
<path fill="none" stroke="black" d="M105.381,-177.145C124.375,-186.859 146.779,-197.892 167.457,-207 177.789,-211.551 189.151,-216.091 199.685,-220.115"/>
</g>
<!-- A8 -->
<g id="node9" class="node"><title>A8</title>
<ellipse fill="none" stroke="black" cx="239.091" cy="-18" rx="71.769" ry="18"/>
<text text-anchor="middle" x="239.091" y="-15" font-family="Helvetica,sans-Serif" font-size="10.00">Submit Assignments</text>
</g>
<!-- A0&#45;&gt;A8 -->
<g id="edge8" class="edge"><title>A0&#45;&gt;A8</title>
<path fill="none" stroke="black" d="M88.6371,-116.985C108.733,-93.8687 137.249,-64.6141 167.457,-45 175.275,-39.924 184.189,-35.5867 192.991,-31.9689"/>
</g>
<!-- A1 -->
<g id="node2" class="node"><title>A1</title>
<g transform="translate(58.7285,-366)" style="fill:none;stroke:black;stroke-width:1px"><circle cx="0" cy="-20" r="7.5" />
                <line x1="0" y1="-12.5" x2="0" y2="5" />
                <line x1="-15" y1="-5" x2="15" y2="-5" />
                <line x1="0" y1="5" x2="-15" y2="17" />
                <line x1="0" y1="5" x2="15" y2="17" /></g>
<text text-anchor="middle" x="58.7285" y="-341" font-family="Helvetica,sans-Serif" font-size="10.00">Teacher</text>
</g>
<!-- A1&#45;&gt;A3 -->
<g id="edge2" class="edge"><title>A1&#45;&gt;A3</title>
<path fill="none" stroke="black" d="M106.591,-376.094C138.794,-380.969 180.581,-387.294 208.313,-391.492"/>
</g>
<!-- A1&#45;&gt;A5 -->
<g id="edge21" class="edge"><title>A1&#45;&gt;A5</title>
<path fill="none" stroke="black" d="M75.5142,-332.999C93.1306,-296.624 124.855,-241.067 167.457,-207 175.865,-200.277 186.133,-195.09 196.208,-191.146"/>
</g>
<!-- A1&#45;&gt;A7 -->
<g id="edge24" class="edge"><title>A1&#45;&gt;A7</title>
<path fill="none" stroke="black" d="M88.6371,-332.985C108.733,-309.869 137.249,-280.614 167.457,-261 176.156,-255.352 186.212,-250.619 195.96,-246.773"/>
</g>
<!-- A10 -->
<g id="node11" class="node"><title>A10</title>
<ellipse fill="none" stroke="black" cx="239.091" cy="-563" rx="55.0269" ry="18"/>
<text text-anchor="middle" x="239.091" y="-560" font-family="Helvetica,sans-Serif" font-size="10.00">Manage Class</text>
</g>
<!-- A1&#45;&gt;A10 -->
<g id="edge20" class="edge"><title>A1&#45;&gt;A10</title>
<path fill="none" stroke="black" d="M92.8592,-405.035C131.344,-446.894 193.246,-514.223 222.2,-545.716"/>
</g>
<!-- A20 -->
<g id="node21" class="node"><title>A20</title>
<ellipse fill="none" stroke="black" cx="239.091" cy="-342" rx="66.8999" ry="18"/>
<text text-anchor="middle" x="239.091" y="-339" font-family="Helvetica,sans-Serif" font-size="10.00">Upload Class Files</text>
</g>
<!-- A1&#45;&gt;A20 -->
<g id="edge22" class="edge"><title>A1&#45;&gt;A20</title>
<path fill="none" stroke="black" d="M106.591,-361.906C129.195,-358.484 156.521,-354.348 180.394,-350.734"/>
</g>
<!-- A21 -->
<g id="node22" class="node"><title>A21</title>
<ellipse fill="none" stroke="black" cx="239.091" cy="-450" rx="65.0572" ry="18"/>
<text text-anchor="middle" x="239.091" y="-447" font-family="Helvetica,sans-Serif" font-size="10.00">Delete Class Files</text>
</g>
<!-- A1&#45;&gt;A21 -->
<g id="edge23" class="edge"><title>A1&#45;&gt;A21</title>
<path fill="none" stroke="black" d="M106.44,-393.686C125.204,-403.267 147.162,-414.061 167.457,-423 177.429,-427.392 188.36,-431.774 198.579,-435.692"/>
</g>
<!-- A2 -->
<g id="node3" class="node"><title>A2</title>
<g transform="translate(58.7285,-560)" style="fill:none;stroke:black;stroke-width:1px"><circle cx="0" cy="-20" r="7.5" />
                <line x1="0" y1="-12.5" x2="0" y2="5" />
                <line x1="-15" y1="-5" x2="15" y2="-5" />
                <line x1="0" y1="5" x2="-15" y2="17" />
                <line x1="0" y1="5" x2="15" y2="17" /></g>
<text text-anchor="middle" x="58.7285" y="-535" font-family="Helvetica,sans-Serif" font-size="10.00">Administrator</text>
</g>
<!-- A2&#45;&gt;A3 -->
<g id="edge3" class="edge"><title>A2&#45;&gt;A3</title>
<path fill="none" stroke="black" d="M79.7353,-526.856C98.692,-495.557 129.821,-451.023 167.457,-423 179.988,-413.67 196.131,-407.18 209.821,-402.905"/>
</g>
<!-- A9 -->
<g id="node10" class="node"><title>A9</title>
<ellipse fill="none" stroke="black" cx="239.091" cy="-1140" rx="65.9287" ry="18"/>
<text text-anchor="middle" x="239.091" y="-1137" font-family="Helvetica,sans-Serif" font-size="10.00">Manage Database</text>
</g>
<!-- A2&#45;&gt;A9 -->
<g id="edge9" class="edge"><title>A2&#45;&gt;A9</title>
<path fill="none" stroke="black" d="M70.8859,-599.094C105.053,-709.623 207.444,-1040.86 232.508,-1121.94"/>
</g>
<!-- A2&#45;&gt;A10 -->
<g id="edge10" class="edge"><title>A2&#45;&gt;A10</title>
<path fill="none" stroke="black" d="M117.638,-563C138.897,-563 162.872,-563 183.802,-563"/>
</g>
<!-- A34 -->
<g id="node35" class="node"><title>A34</title>
<ellipse fill="none" stroke="black" cx="436.035" cy="-229" rx="35.4469" ry="18"/>
<text text-anchor="middle" x="436.035" y="-226" font-family="Helvetica,sans-Serif" font-size="10.00">Logout</text>
</g>
<!-- A3&#45;&gt;A34 -->
<g id="edge37" class="edge"><title>A3&#45;&gt;A34</title>
<path fill="none" stroke="black" stroke-dasharray="5,2" d="M269.395,-390.322C283.339,-386.35 299.398,-379.759 310.726,-369 350.546,-331.179 320.593,-293.49 360.726,-256 369.57,-247.738 381.137,-241.965 392.502,-237.945"/>
<polygon fill="black" stroke="black" points="402.364,-234.846 394.173,-242.137 397.594,-236.345 392.824,-237.844 392.824,-237.844 392.824,-237.844 397.594,-236.345 391.474,-233.551 402.364,-234.846 402.364,-234.846"/>
</g>
<!-- A11 -->
<g id="node12" class="node"><title>A11</title>
<ellipse fill="none" stroke="black" cx="436.035" cy="-1221" rx="44.4737" ry="18"/>
<text text-anchor="middle" x="436.035" y="-1218" font-family="Helvetica,sans-Serif" font-size="10.00">Add Class</text>
</g>
<!-- A9&#45;&gt;A11 -->
<g id="edge11" class="edge"><title>A9&#45;&gt;A11</title>
<path fill="none" stroke="black" stroke-dasharray="5,2" d="M273.096,-1155.55C297.187,-1166.71 330.737,-1181.86 360.726,-1194 370.753,-1198.06 381.649,-1202.18 391.929,-1205.94"/>
<polygon fill="black" stroke="black" points="401.547,-1209.41 390.613,-1210.25 396.845,-1207.71 392.143,-1206.01 392.143,-1206.01 392.143,-1206.01 396.845,-1207.71 393.673,-1201.78 401.547,-1209.41 401.547,-1209.41"/>
</g>
<!-- A12 -->
<g id="node13" class="node"><title>A12</title>
<ellipse fill="none" stroke="black" cx="436.035" cy="-1167" rx="51.0172" ry="18"/>
<text text-anchor="middle" x="436.035" y="-1164" font-family="Helvetica,sans-Serif" font-size="10.00">Add Teacher</text>
</g>
<!-- A9&#45;&gt;A12 -->
<g id="edge12" class="edge"><title>A9&#45;&gt;A12</title>
<path fill="none" stroke="black" stroke-dasharray="5,2" d="M298.317,-1148.06C323.56,-1151.56 353.02,-1155.64 378.115,-1159.12"/>
<polygon fill="black" stroke="black" points="388.217,-1160.52 377.694,-1163.6 383.264,-1159.83 378.312,-1159.14 378.312,-1159.14 378.312,-1159.14 383.264,-1159.83 378.929,-1154.69 388.217,-1160.52 388.217,-1160.52"/>
</g>
<!-- A13 -->
<g id="node14" class="node"><title>A13</title>
<ellipse fill="none" stroke="black" cx="436.035" cy="-1113" rx="49.8571" ry="18"/>
<text text-anchor="middle" x="436.035" y="-1110" font-family="Helvetica,sans-Serif" font-size="10.00">Add Student</text>
</g>
<!-- A9&#45;&gt;A13 -->
<g id="edge13" class="edge"><title>A9&#45;&gt;A13</title>
<path fill="none" stroke="black" stroke-dasharray="5,2" d="M298.317,-1131.94C323.856,-1128.4 353.711,-1124.26 378.996,-1120.76"/>
<polygon fill="black" stroke="black" points="389.163,-1119.35 379.875,-1125.18 384.211,-1120.04 379.258,-1120.73 379.258,-1120.73 379.258,-1120.73 384.211,-1120.04 378.64,-1116.27 389.163,-1119.35 389.163,-1119.35"/>
</g>
<!-- A14 -->
<g id="node15" class="node"><title>A14</title>
<ellipse fill="none" stroke="black" cx="436.035" cy="-1059" rx="52.8476" ry="18"/>
<text text-anchor="middle" x="436.035" y="-1056" font-family="Helvetica,sans-Serif" font-size="10.00">Update Class</text>
</g>
<!-- A9&#45;&gt;A14 -->
<g id="edge14" class="edge"><title>A9&#45;&gt;A14</title>
<path fill="none" stroke="black" stroke-dasharray="5,2" d="M273.096,-1124.45C297.187,-1113.29 330.737,-1098.14 360.726,-1086 369.696,-1082.37 379.362,-1078.69 388.66,-1075.26"/>
<polygon fill="black" stroke="black" points="398.172,-1071.8 390.316,-1079.45 393.474,-1073.51 388.776,-1075.22 388.776,-1075.22 388.776,-1075.22 393.474,-1073.51 387.236,-1070.99 398.172,-1071.8 398.172,-1071.8"/>
</g>
<!-- A15 -->
<g id="node16" class="node"><title>A15</title>
<ellipse fill="none" stroke="black" cx="436.035" cy="-1005" rx="59.8912" ry="18"/>
<text text-anchor="middle" x="436.035" y="-1002" font-family="Helvetica,sans-Serif" font-size="10.00">Update Teacher</text>
</g>
<!-- A9&#45;&gt;A15 -->
<g id="edge15" class="edge"><title>A9&#45;&gt;A15</title>
<path fill="none" stroke="black" stroke-dasharray="5,2" d="M255.634,-1122.4C277.175,-1098.93 318.275,-1057.41 360.726,-1032 367.516,-1027.94 375.017,-1024.33 382.564,-1021.19"/>
<polygon fill="black" stroke="black" points="392.099,-1017.45 384.43,-1025.29 387.443,-1019.28 382.788,-1021.1 382.788,-1021.1 382.788,-1021.1 387.443,-1019.28 381.146,-1016.91 392.099,-1017.45 392.099,-1017.45"/>
</g>
<!-- A16 -->
<g id="node17" class="node"><title>A16</title>
<ellipse fill="none" stroke="black" cx="436.035" cy="-951" rx="58.7322" ry="18"/>
<text text-anchor="middle" x="436.035" y="-948" font-family="Helvetica,sans-Serif" font-size="10.00">Update Student</text>
</g>
<!-- A9&#45;&gt;A16 -->
<g id="edge16" class="edge"><title>A9&#45;&gt;A16</title>
<path fill="none" stroke="black" stroke-dasharray="5,2" d="M248.946,-1121.96C266.073,-1088.85 306.848,-1018.08 360.726,-978 366.783,-973.494 373.667,-969.678 380.744,-966.463"/>
<polygon fill="black" stroke="black" points="390.453,-962.444 382.935,-970.426 385.833,-964.356 381.213,-966.269 381.213,-966.269 381.213,-966.269 385.833,-964.356 379.492,-962.111 390.453,-962.444 390.453,-962.444"/>
</g>
<!-- A17 -->
<g id="node18" class="node"><title>A17</title>
<ellipse fill="none" stroke="black" cx="436.035" cy="-1383" rx="55.8501" ry="18"/>
<text text-anchor="middle" x="436.035" y="-1380" font-family="Helvetica,sans-Serif" font-size="10.00">Remove Class</text>
</g>
<!-- A9&#45;&gt;A17 -->
<g id="edge17" class="edge"><title>A9&#45;&gt;A17</title>
<path fill="none" stroke="black" stroke-dasharray="5,2" d="M245.394,-1158.19C258.288,-1199.31 295.136,-1300.19 360.726,-1356 366.68,-1361.07 373.662,-1365.21 380.921,-1368.6"/>
<polygon fill="black" stroke="black" points="390.207,-1372.5 379.245,-1372.78 385.597,-1370.56 380.986,-1368.63 380.986,-1368.63 380.986,-1368.63 385.597,-1370.56 382.727,-1364.48 390.207,-1372.5 390.207,-1372.5"/>
</g>
<!-- A18 -->
<g id="node19" class="node"><title>A18</title>
<ellipse fill="none" stroke="black" cx="436.035" cy="-1329" rx="62.8937" ry="18"/>
<text text-anchor="middle" x="436.035" y="-1326" font-family="Helvetica,sans-Serif" font-size="10.00">Remove Teacher</text>
</g>
<!-- A9&#45;&gt;A18 -->
<g id="edge18" class="edge"><title>A9&#45;&gt;A18</title>
<path fill="none" stroke="black" stroke-dasharray="5,2" d="M248.946,-1158.04C266.073,-1191.15 306.848,-1261.92 360.726,-1302 366.48,-1306.28 372.981,-1309.94 379.684,-1313.05"/>
<polygon fill="black" stroke="black" points="388.898,-1316.96 377.935,-1317.2 384.296,-1315.01 379.693,-1313.05 379.693,-1313.05 379.693,-1313.05 384.296,-1315.01 381.451,-1308.91 388.898,-1316.96 388.898,-1316.96"/>
</g>
<!-- A19 -->
<g id="node20" class="node"><title>A19</title>
<ellipse fill="none" stroke="black" cx="436.035" cy="-1275" rx="61.7348" ry="18"/>
<text text-anchor="middle" x="436.035" y="-1272" font-family="Helvetica,sans-Serif" font-size="10.00">Remove Student</text>
</g>
<!-- A9&#45;&gt;A19 -->
<g id="edge19" class="edge"><title>A9&#45;&gt;A19</title>
<path fill="none" stroke="black" stroke-dasharray="5,2" d="M255.634,-1157.6C277.175,-1181.07 318.275,-1222.59 360.726,-1248 367.433,-1252.01 374.834,-1255.58 382.288,-1258.7"/>
<polygon fill="black" stroke="black" points="391.71,-1262.4 380.757,-1262.93 387.057,-1260.57 382.404,-1258.74 382.404,-1258.74 382.404,-1258.74 387.057,-1260.57 384.052,-1254.55 391.71,-1262.4 391.71,-1262.4"/>
</g>
<!-- A22 -->
<g id="node23" class="node"><title>A22</title>
<ellipse fill="none" stroke="black" cx="436.035" cy="-445" rx="49.4883" ry="18"/>
<text text-anchor="middle" x="436.035" y="-442" font-family="Helvetica,sans-Serif" font-size="10.00">View Roster</text>
</g>
<!-- A10&#45;&gt;A22 -->
<g id="edge25" class="edge"><title>A10&#45;&gt;A22</title>
<path fill="none" stroke="black" stroke-dasharray="5,2" d="M258.919,-545.943C281.67,-526.037 321.762,-493.154 360.726,-472 369.231,-467.382 378.688,-463.26 387.927,-459.711"/>
<polygon fill="black" stroke="black" points="397.428,-456.222 389.592,-463.893 392.734,-457.946 388.041,-459.669 388.041,-459.669 388.041,-459.669 392.734,-457.946 386.49,-455.445 397.428,-456.222 397.428,-456.222"/>
</g>
<!-- A23 -->
<g id="node24" class="node"><title>A23</title>
<ellipse fill="none" stroke="black" cx="436.035" cy="-391" rx="51.0052" ry="18"/>
<text text-anchor="middle" x="436.035" y="-388" font-family="Helvetica,sans-Serif" font-size="10.00">View Grades</text>
</g>
<!-- A10&#45;&gt;A23 -->
<g id="edge26" class="edge"><title>A10&#45;&gt;A23</title>
<path fill="none" stroke="black" stroke-dasharray="5,2" d="M254.403,-545.558C285.631,-507.531 357.377,-420.354 360.726,-418 367.987,-412.896 376.321,-408.647 384.723,-405.148"/>
<polygon fill="black" stroke="black" points="394.184,-401.51 386.465,-409.3 389.517,-403.305 384.85,-405.099 384.85,-405.099 384.85,-405.099 389.517,-403.305 383.235,-400.899 394.184,-401.51 394.184,-401.51"/>
</g>
<!-- A24 -->
<g id="node25" class="node"><title>A24</title>
<ellipse fill="none" stroke="black" cx="436.035" cy="-337" rx="65.9059" ry="18"/>
<text text-anchor="middle" x="436.035" y="-334" font-family="Helvetica,sans-Serif" font-size="10.00">View Assignments</text>
</g>
<!-- A10&#45;&gt;A24 -->
<g id="edge27" class="edge"><title>A10&#45;&gt;A24</title>
<path fill="none" stroke="black" stroke-dasharray="5,2" d="M256.769,-545.632C272.146,-528.984 294.918,-502.663 310.726,-477 339.529,-430.24 320.593,-401.49 360.726,-364 365.333,-359.696 370.68,-356.067 376.353,-353.009"/>
<polygon fill="black" stroke="black" points="385.475,-348.66 378.385,-357.026 380.961,-350.812 376.448,-352.964 376.448,-352.964 376.448,-352.964 380.961,-350.812 374.511,-348.902 385.475,-348.66 385.475,-348.66"/>
</g>
<!-- A25 -->
<g id="node26" class="node"><title>A25</title>
<ellipse fill="none" stroke="black" cx="436.035" cy="-283" rx="61.9069" ry="18"/>
<text text-anchor="middle" x="436.035" y="-280" font-family="Helvetica,sans-Serif" font-size="10.00">View Attendance</text>
</g>
<!-- A10&#45;&gt;A25 -->
<g id="edge28" class="edge"><title>A10&#45;&gt;A25</title>
<path fill="none" stroke="black" stroke-dasharray="5,2" d="M257.827,-545.747C273.726,-529.385 296.651,-503.434 310.726,-477 347.138,-408.612 307.541,-366.34 360.726,-310 365.178,-305.284 370.518,-301.389 376.266,-298.172"/>
<polygon fill="black" stroke="black" points="385.567,-293.656 378.537,-302.072 381.069,-295.84 376.572,-298.024 376.572,-298.024 376.572,-298.024 381.069,-295.84 374.606,-293.976 385.567,-293.656 385.567,-293.656"/>
</g>
<!-- A26 -->
<g id="node27" class="node"><title>A26</title>
<ellipse fill="none" stroke="black" cx="436.035" cy="-897" rx="48.839" ry="18"/>
<text text-anchor="middle" x="436.035" y="-894" font-family="Helvetica,sans-Serif" font-size="10.00">Add Grades</text>
</g>
<!-- A10&#45;&gt;A26 -->
<g id="edge29" class="edge"><title>A10&#45;&gt;A26</title>
<path fill="none" stroke="black" stroke-dasharray="5,2" d="M242.034,-581.045C248.597,-633.254 274.597,-786.073 360.726,-870 367.083,-876.194 374.969,-880.982 383.207,-884.679"/>
<polygon fill="black" stroke="black" points="392.595,-888.405 381.64,-888.898 387.948,-886.56 383.3,-884.716 383.3,-884.716 383.3,-884.716 387.948,-886.56 384.961,-880.533 392.595,-888.405 392.595,-888.405"/>
</g>
<!-- A27 -->
<g id="node28" class="node"><title>A27</title>
<ellipse fill="none" stroke="black" cx="436.035" cy="-843" rx="63.7409" ry="18"/>
<text text-anchor="middle" x="436.035" y="-840" font-family="Helvetica,sans-Serif" font-size="10.00">Add Assignments</text>
</g>
<!-- A10&#45;&gt;A27 -->
<g id="edge30" class="edge"><title>A10&#45;&gt;A27</title>
<path fill="none" stroke="black" stroke-dasharray="5,2" d="M243.754,-581.138C253.942,-627.046 286.871,-748.943 360.726,-816 365.527,-820.36 371.088,-824.03 376.964,-827.116"/>
<polygon fill="black" stroke="black" points="386.393,-831.502 375.428,-831.365 381.859,-829.393 377.326,-827.285 377.326,-827.285 377.326,-827.285 381.859,-829.393 379.223,-823.204 386.393,-831.502 386.393,-831.502"/>
</g>
<!-- A28 -->
<g id="node29" class="node"><title>A28</title>
<ellipse fill="none" stroke="black" cx="436.035" cy="-784" rx="55.6304" ry="22.7556"/>
<text text-anchor="middle" x="436.035" y="-787" font-family="Helvetica,sans-Serif" font-size="10.00">Add Class</text>
<text text-anchor="middle" x="436.035" y="-775" font-family="Helvetica,sans-Serif" font-size="10.00">Attendance</text>
</g>
<!-- A10&#45;&gt;A28 -->
<g id="edge31" class="edge"><title>A10&#45;&gt;A28</title>
<path fill="none" stroke="black" stroke-dasharray="5,2" d="M247.168,-580.853C262.563,-617.613 302.453,-702.451 360.726,-752 367.109,-757.428 374.553,-762.064 382.216,-765.982"/>
<polygon fill="black" stroke="black" points="391.263,-770.257 380.299,-770.053 386.742,-768.121 382.221,-765.984 382.221,-765.984 382.221,-765.984 386.742,-768.121 384.144,-761.916 391.263,-770.257 391.263,-770.257"/>
</g>
<!-- A29 -->
<g id="node30" class="node"><title>A29</title>
<ellipse fill="none" stroke="black" cx="436.035" cy="-725" rx="60.7167" ry="18"/>
<text text-anchor="middle" x="436.035" y="-722" font-family="Helvetica,sans-Serif" font-size="10.00">Remove Grades</text>
</g>
<!-- A10&#45;&gt;A29 -->
<g id="edge32" class="edge"><title>A10&#45;&gt;A29</title>
<path fill="none" stroke="black" stroke-dasharray="5,2" d="M251.67,-580.871C271.016,-609.419 312.571,-665.406 360.726,-698 366.978,-702.232 373.973,-705.891 381.104,-709.029"/>
<polygon fill="black" stroke="black" points="390.855,-712.99 379.897,-713.396 386.223,-711.108 381.59,-709.227 381.59,-709.227 381.59,-709.227 386.223,-711.108 383.284,-705.057 390.855,-712.99 390.855,-712.99"/>
</g>
<!-- A30 -->
<g id="node31" class="node"><title>A30</title>
<ellipse fill="none" stroke="black" cx="436.035" cy="-671" rx="75.1188" ry="18"/>
<text text-anchor="middle" x="436.035" y="-668" font-family="Helvetica,sans-Serif" font-size="10.00">Remove Assignments</text>
</g>
<!-- A10&#45;&gt;A30 -->
<g id="edge33" class="edge"><title>A10&#45;&gt;A30</title>
<path fill="none" stroke="black" stroke-dasharray="5,2" d="M261.341,-579.606C284.705,-597.293 323.838,-625.267 360.726,-644 366.893,-647.132 373.511,-650.077 380.164,-652.787"/>
<polygon fill="black" stroke="black" points="389.888,-656.585 378.936,-657.139 385.23,-654.766 380.573,-652.947 380.573,-652.947 380.573,-652.947 385.23,-654.766 382.21,-648.755 389.888,-656.585 389.888,-656.585"/>
</g>
<!-- A31 -->
<g id="node32" class="node"><title>A31</title>
<ellipse fill="none" stroke="black" cx="436.035" cy="-617" rx="57.7141" ry="18"/>
<text text-anchor="middle" x="436.035" y="-614" font-family="Helvetica,sans-Serif" font-size="10.00">Update Grades</text>
</g>
<!-- A10&#45;&gt;A31 -->
<g id="edge34" class="edge"><title>A10&#45;&gt;A31</title>
<path fill="none" stroke="black" stroke-dasharray="5,2" d="M281.912,-574.584C311.288,-582.722 350.808,-593.669 382.34,-602.403"/>
<polygon fill="black" stroke="black" points="392.273,-605.155 381.435,-606.822 387.455,-603.82 382.636,-602.485 382.636,-602.485 382.636,-602.485 387.455,-603.82 383.838,-598.149 392.273,-605.155 392.273,-605.155"/>
</g>
<!-- A32 -->
<g id="node33" class="node"><title>A32</title>
<ellipse fill="none" stroke="black" cx="436.035" cy="-563" rx="72.1162" ry="18"/>
<text text-anchor="middle" x="436.035" y="-560" font-family="Helvetica,sans-Serif" font-size="10.00">Update Assignments</text>
</g>
<!-- A10&#45;&gt;A32 -->
<g id="edge35" class="edge"><title>A10&#45;&gt;A32</title>
<path fill="none" stroke="black" stroke-dasharray="5,2" d="M294.394,-563C312.706,-563 333.565,-563 353.508,-563"/>
<polygon fill="black" stroke="black" points="363.522,-563 353.522,-567.5 358.522,-563 353.522,-563 353.522,-563 353.522,-563 358.522,-563 353.522,-558.5 363.522,-563 363.522,-563"/>
</g>
<!-- A33 -->
<g id="node34" class="node"><title>A33</title>
<ellipse fill="none" stroke="black" cx="436.035" cy="-504" rx="62.4658" ry="22.7556"/>
<text text-anchor="middle" x="436.035" y="-507" font-family="Helvetica,sans-Serif" font-size="10.00">Update Class</text>
<text text-anchor="middle" x="436.035" y="-495" font-family="Helvetica,sans-Serif" font-size="10.00">Attendance</text>
</g>
<!-- A10&#45;&gt;A33 -->
<g id="edge36" class="edge"><title>A10&#45;&gt;A33</title>
<path fill="none" stroke="black" stroke-dasharray="5,2" d="M280.484,-550.775C308.56,-542.278 346.393,-530.828 377.599,-521.383"/>
<polygon fill="black" stroke="black" points="387.477,-518.394 379.209,-525.597 382.691,-519.842 377.906,-521.29 377.906,-521.29 377.906,-521.29 382.691,-519.842 376.602,-516.983 387.477,-518.394 387.477,-518.394"/>
</g>
<!-- A35 -->
<g id="node36" class="node"><title>A35</title>
<polygon fill="beige" stroke="black" points="284.676,-306 187.507,-306 187.507,-270 290.676,-270 290.676,-300 284.676,-306"/>
<polyline fill="none" stroke="black" points="284.676,-306 284.676,-300 "/>
<polyline fill="none" stroke="black" points="290.676,-300 284.676,-300 "/>
<text text-anchor="middle" x="239.091" y="-285" font-family="Helvetica,sans-Serif" font-size="10.00">Included in Login</text>
</g>
<!-- A35&#45;&gt;A34 -->
<g id="edge38" class="edge"><title>A35&#45;&gt;A34</title>
<path fill="none" stroke="black" stroke-dasharray="5,2" d="M290.802,-272.652C327.128,-261.658 374.81,-247.227 405.197,-238.031"/>
</g>
</g>
</svg>
