<?xml version="1.0" encoding="UTF-8" standalone="no"?>
<!DOCTYPE svg PUBLIC "-//W3C//DTD SVG 1.1//EN"
 "http://www.w3.org/Graphics/SVG/1.1/DTD/svg11.dtd">
<!-- Generated by graphviz version 2.38.0 (20140413.2041)
 -->
<!-- Title: G Pages: 1 -->
<svg width="523pt" height="1247pt"
 viewBox="0.00 0.00 522.69 1247.00" xmlns="http://www.w3.org/2000/svg" xmlns:xlink="http://www.w3.org/1999/xlink">
<g id="graph0" class="graph" transform="scale(1 1) rotate(0) translate(4 1243)">
<title>G</title>
<polygon fill="white" stroke="none" points="-4,4 -4,-1243 518.686,-1243 518.686,4 -4,4"/>
<!-- A0 -->
<g id="node1" class="node"><title>A0</title>
<g transform="translate(58.7285,-150)" style="fill:none;stroke:black;stroke-width:1px"><circle cx="0" cy="-20" r="7.5" />
                <line x1="0" y1="-12.5" x2="0" y2="5" />
                <line x1="-15" y1="-5" x2="15" y2="-5" />
                <line x1="0" y1="5" x2="-15" y2="17" />
                <line x1="0" y1="5" x2="15" y2="17" /></g>
<text text-anchor="middle" x="58.7285" y="-125" font-family="Helvetica,sans-Serif" font-size="10.00">Student</text>
</g>
<!-- A3 -->
<g id="node4" class="node"><title>A3</title>
<ellipse fill="none" stroke="black" cx="240.762" cy="-396" rx="31.5864" ry="18"/>
<text text-anchor="middle" x="240.762" y="-393" font-family="Helvetica,sans-Serif" font-size="10.00">Login</text>
</g>
<!-- A0&#45;&gt;A3 -->
<g id="edge1" class="edge"><title>A0&#45;&gt;A3</title>
<path fill="none" stroke="black" d="M77.6251,-189.301C107.776,-250.401 165.617,-367.344 167.457,-369 179.509,-379.846 196.321,-386.471 210.702,-390.442"/>
</g>
<!-- A4 -->
<g id="node5" class="node"><title>A4</title>
<ellipse fill="none" stroke="black" cx="240.762" cy="-126" rx="60.039" ry="18"/>
<text text-anchor="middle" x="240.762" y="-123" font-family="Helvetica,sans-Serif" font-size="10.00">Enroll in a Class</text>
</g>
<!-- A0&#45;&gt;A4 -->
<g id="edge4" class="edge"><title>A0&#45;&gt;A4</title>
<path fill="none" stroke="black" d="M105.624,-146.117C130.315,-142.414 160.889,-137.829 186.609,-133.972"/>
</g>
<!-- A5 -->
<g id="node6" class="node"><title>A5</title>
<ellipse fill="none" stroke="black" cx="240.762" cy="-234" rx="73.1115" ry="18"/>
<text text-anchor="middle" x="240.762" y="-231" font-family="Helvetica,sans-Serif" font-size="10.00">View Class Schedule</text>
</g>
<!-- A0&#45;&gt;A5 -->
<g id="edge5" class="edge"><title>A0&#45;&gt;A5</title>
<path fill="none" stroke="black" d="M105.346,-177.225C124.334,-186.951 146.744,-197.972 167.457,-207 177.284,-211.283 188.03,-215.526 198.161,-219.335"/>
</g>
<!-- A6 -->
<g id="node7" class="node"><title>A6</title>
<ellipse fill="none" stroke="black" cx="240.762" cy="-72" rx="55.0281" ry="18"/>
<text text-anchor="middle" x="240.762" y="-69" font-family="Helvetica,sans-Serif" font-size="10.00">Check Grades</text>
</g>
<!-- A0&#45;&gt;A6 -->
<g id="edge6" class="edge"><title>A0&#45;&gt;A6</title>
<path fill="none" stroke="black" d="M105.346,-128.775C124.334,-119.049 146.744,-108.028 167.457,-99 178.635,-94.1281 191.003,-89.3081 202.302,-85.1188"/>
</g>
<!-- A7 -->
<g id="node8" class="node"><title>A7</title>
<ellipse fill="none" stroke="black" cx="240.762" cy="-180" rx="60.8636" ry="18"/>
<text text-anchor="middle" x="240.762" y="-177" font-family="Helvetica,sans-Serif" font-size="10.00">View Class Files</text>
</g>
<!-- A0&#45;&gt;A7 -->
<g id="edge7" class="edge"><title>A0&#45;&gt;A7</title>
<path fill="none" stroke="black" d="M105.624,-159.883C130.107,-163.555 160.373,-168.094 185.957,-171.931"/>
</g>
<!-- A8 -->
<g id="node9" class="node"><title>A8</title>
<ellipse fill="none" stroke="black" cx="240.762" cy="-18" rx="71.769" ry="18"/>
<text text-anchor="middle" x="240.762" y="-15" font-family="Helvetica,sans-Serif" font-size="10.00">Submit Assignments</text>
</g>
<!-- A0&#45;&gt;A8 -->
<g id="edge8" class="edge"><title>A0&#45;&gt;A8</title>
<path fill="none" stroke="black" d="M88.5872,-116.908C108.662,-93.7591 137.173,-64.4972 167.457,-45 175.569,-39.7774 184.837,-35.3567 193.97,-31.7001"/>
</g>
<!-- A1 -->
<g id="node2" class="node"><title>A1</title>
<g transform="translate(58.7285,-312)" style="fill:none;stroke:black;stroke-width:1px"><circle cx="0" cy="-20" r="7.5" />
                <line x1="0" y1="-12.5" x2="0" y2="5" />
                <line x1="-15" y1="-5" x2="15" y2="-5" />
                <line x1="0" y1="5" x2="-15" y2="17" />
                <line x1="0" y1="5" x2="15" y2="17" /></g>
<text text-anchor="middle" x="58.7285" y="-287" font-family="Helvetica,sans-Serif" font-size="10.00">Teacher</text>
</g>
<!-- A1&#45;&gt;A3 -->
<g id="edge2" class="edge"><title>A1&#45;&gt;A3</title>
<path fill="none" stroke="black" d="M106.404,-339.767C125.164,-349.359 147.128,-360.14 167.457,-369 182.443,-375.532 199.567,-381.97 213.388,-386.92"/>
</g>
<!-- A1&#45;&gt;A5 -->
<g id="edge21" class="edge"><title>A1&#45;&gt;A5</title>
<path fill="none" stroke="black" d="M106.404,-290.233C125.164,-280.641 147.128,-269.86 167.457,-261 177.284,-256.717 188.03,-252.474 198.161,-248.665"/>
</g>
<!-- A1&#45;&gt;A7 -->
<g id="edge24" class="edge"><title>A1&#45;&gt;A7</title>
<path fill="none" stroke="black" d="M88.5872,-278.908C108.662,-255.759 137.173,-226.497 167.457,-207 176.358,-201.27 186.651,-196.505 196.629,-192.655"/>
</g>
<!-- A10 -->
<g id="node11" class="node"><title>A10</title>
<ellipse fill="none" stroke="black" cx="240.762" cy="-450" rx="55.0269" ry="18"/>
<text text-anchor="middle" x="240.762" y="-447" font-family="Helvetica,sans-Serif" font-size="10.00">Manage Class</text>
</g>
<!-- A1&#45;&gt;A10 -->
<g id="edge20" class="edge"><title>A1&#45;&gt;A10</title>
<path fill="none" stroke="black" d="M88.5872,-351.092C108.662,-374.241 137.173,-403.503 167.457,-423 177.034,-429.166 188.222,-434.213 198.896,-438.206"/>
</g>
<!-- A20 -->
<g id="node21" class="node"><title>A20</title>
<ellipse fill="none" stroke="black" cx="240.762" cy="-288" rx="66.8999" ry="18"/>
<text text-anchor="middle" x="240.762" y="-285" font-family="Helvetica,sans-Serif" font-size="10.00">Upload Class Files</text>
</g>
<!-- A1&#45;&gt;A20 -->
<g id="edge22" class="edge"><title>A1&#45;&gt;A20</title>
<path fill="none" stroke="black" d="M106.56,-307.977C129.585,-304.523 157.551,-300.329 181.902,-296.677"/>
</g>
<!-- A21 -->
<g id="node22" class="node"><title>A21</title>
<ellipse fill="none" stroke="black" cx="240.762" cy="-342" rx="65.0572" ry="18"/>
<text text-anchor="middle" x="240.762" y="-339" font-family="Helvetica,sans-Serif" font-size="10.00">Delete Class Files</text>
</g>
<!-- A1&#45;&gt;A21 -->
<g id="edge23" class="edge"><title>A1&#45;&gt;A21</title>
<path fill="none" stroke="black" d="M106.56,-322.023C129.898,-325.523 158.311,-329.785 182.891,-333.471"/>
</g>
<!-- A2 -->
<g id="node3" class="node"><title>A2</title>
<g transform="translate(58.7285,-447)" style="fill:none;stroke:black;stroke-width:1px"><circle cx="0" cy="-20" r="7.5" />
                <line x1="0" y1="-12.5" x2="0" y2="5" />
                <line x1="-15" y1="-5" x2="15" y2="-5" />
                <line x1="0" y1="5" x2="-15" y2="17" />
                <line x1="0" y1="5" x2="15" y2="17" /></g>
<text text-anchor="middle" x="58.7285" y="-422" font-family="Helvetica,sans-Serif" font-size="10.00">Administrator</text>
</g>
<!-- A2&#45;&gt;A3 -->
<g id="edge3" class="edge"><title>A2&#45;&gt;A3</title>
<path fill="none" stroke="black" d="M117.683,-432.617C149.343,-423.121 187.09,-411.799 212.143,-404.284"/>
</g>
<!-- A9 -->
<g id="node10" class="node"><title>A9</title>
<ellipse fill="none" stroke="black" cx="240.762" cy="-978" rx="65.9287" ry="18"/>
<text text-anchor="middle" x="240.762" y="-975" font-family="Helvetica,sans-Serif" font-size="10.00">Manage Database</text>
</g>
<!-- A2&#45;&gt;A9 -->
<g id="edge9" class="edge"><title>A2&#45;&gt;A9</title>
<path fill="none" stroke="black" d="M72.103,-486.292C107.415,-589.855 207.78,-884.203 233.63,-960.015"/>
</g>
<!-- A2&#45;&gt;A10 -->
<g id="edge10" class="edge"><title>A2&#45;&gt;A10</title>
<path fill="none" stroke="black" d="M117.683,-450C139.373,-450 163.918,-450 185.283,-450"/>
</g>
<!-- A11 -->
<g id="node12" class="node"><title>A11</title>
<ellipse fill="none" stroke="black" cx="439.377" cy="-1221" rx="44.4737" ry="18"/>
<text text-anchor="middle" x="439.377" y="-1218" font-family="Helvetica,sans-Serif" font-size="10.00">Add Class</text>
</g>
<!-- A9&#45;&gt;A11 -->
<g id="edge11" class="edge"><title>A9&#45;&gt;A11</title>
<path fill="none" stroke="black" stroke-dasharray="5,2" d="M247.213,-996.187C260.44,-1037.31 298.097,-1138.2 364.068,-1194 371.613,-1200.38 380.791,-1205.31 390.087,-1209.1"/>
<polygon fill="black" stroke="black" points="399.753,-1212.64 388.815,-1213.42 395.059,-1210.92 390.365,-1209.2 390.365,-1209.2 390.365,-1209.2 395.059,-1210.92 391.915,-1204.97 399.753,-1212.64 399.753,-1212.64"/>
</g>
<!-- A12 -->
<g id="node13" class="node"><title>A12</title>
<ellipse fill="none" stroke="black" cx="439.377" cy="-1167" rx="51.0172" ry="18"/>
<text text-anchor="middle" x="439.377" y="-1164" font-family="Helvetica,sans-Serif" font-size="10.00">Add Teacher</text>
</g>
<!-- A9&#45;&gt;A12 -->
<g id="edge12" class="edge"><title>A9&#45;&gt;A12</title>
<path fill="none" stroke="black" stroke-dasharray="5,2" d="M250.805,-996.032C268.278,-1029.14 309.79,-1099.9 364.068,-1140 371.127,-1145.22 379.294,-1149.51 387.577,-1153.02"/>
<polygon fill="black" stroke="black" points="396.925,-1156.65 385.974,-1157.22 392.265,-1154.84 387.604,-1153.03 387.604,-1153.03 387.604,-1153.03 392.265,-1154.84 389.235,-1148.83 396.925,-1156.65 396.925,-1156.65"/>
</g>
<!-- A13 -->
<g id="node14" class="node"><title>A13</title>
<ellipse fill="none" stroke="black" cx="439.377" cy="-1113" rx="49.8571" ry="18"/>
<text text-anchor="middle" x="439.377" y="-1110" font-family="Helvetica,sans-Serif" font-size="10.00">Add Student</text>
</g>
<!-- A9&#45;&gt;A13 -->
<g id="edge13" class="edge"><title>A9&#45;&gt;A13</title>
<path fill="none" stroke="black" stroke-dasharray="5,2" d="M257.571,-995.59C279.469,-1019.04 321.202,-1060.54 364.068,-1086 372.128,-1090.79 381.176,-1094.94 390.112,-1098.46"/>
<polygon fill="black" stroke="black" points="399.712,-1102.03 388.771,-1102.76 395.025,-1100.29 390.339,-1098.54 390.339,-1098.54 390.339,-1098.54 395.025,-1100.29 391.907,-1094.33 399.712,-1102.03 399.712,-1102.03"/>
</g>
<!-- A14 -->
<g id="node15" class="node"><title>A14</title>
<ellipse fill="none" stroke="black" cx="439.377" cy="-1059" rx="52.8476" ry="18"/>
<text text-anchor="middle" x="439.377" y="-1056" font-family="Helvetica,sans-Serif" font-size="10.00">Update Class</text>
</g>
<!-- A9&#45;&gt;A14 -->
<g id="edge14" class="edge"><title>A9&#45;&gt;A14</title>
<path fill="none" stroke="black" stroke-dasharray="5,2" d="M274.988,-993.394C299.441,-1004.55 333.593,-1019.75 364.068,-1032 373.048,-1035.61 382.718,-1039.28 392.017,-1042.7"/>
<polygon fill="black" stroke="black" points="401.529,-1046.16 390.593,-1046.97 396.831,-1044.45 392.133,-1042.74 392.133,-1042.74 392.133,-1042.74 396.831,-1044.45 393.673,-1038.51 401.529,-1046.16 401.529,-1046.16"/>
</g>
<!-- A15 -->
<g id="node16" class="node"><title>A15</title>
<ellipse fill="none" stroke="black" cx="439.377" cy="-1005" rx="59.8912" ry="18"/>
<text text-anchor="middle" x="439.377" y="-1002" font-family="Helvetica,sans-Serif" font-size="10.00">Update Teacher</text>
</g>
<!-- A9&#45;&gt;A15 -->
<g id="edge15" class="edge"><title>A9&#45;&gt;A15</title>
<path fill="none" stroke="black" stroke-dasharray="5,2" d="M299.955,-985.991C323.339,-989.202 350.377,-992.915 374.318,-996.203"/>
<polygon fill="black" stroke="black" points="384.369,-997.583 373.85,-1000.68 379.415,-996.903 374.462,-996.223 374.462,-996.223 374.462,-996.223 379.415,-996.903 375.074,-991.765 384.369,-997.583 384.369,-997.583"/>
</g>
<!-- A16 -->
<g id="node17" class="node"><title>A16</title>
<ellipse fill="none" stroke="black" cx="439.377" cy="-951" rx="58.7322" ry="18"/>
<text text-anchor="middle" x="439.377" y="-948" font-family="Helvetica,sans-Serif" font-size="10.00">Update Student</text>
</g>
<!-- A9&#45;&gt;A16 -->
<g id="edge16" class="edge"><title>A9&#45;&gt;A16</title>
<path fill="none" stroke="black" stroke-dasharray="5,2" d="M299.955,-970.009C323.735,-966.743 351.294,-962.959 375.532,-959.63"/>
<polygon fill="black" stroke="black" points="385.696,-958.234 376.401,-964.053 380.743,-958.915 375.789,-959.595 375.789,-959.595 375.789,-959.595 380.743,-958.915 375.177,-955.137 385.696,-958.234 385.696,-958.234"/>
</g>
<!-- A17 -->
<g id="node18" class="node"><title>A17</title>
<ellipse fill="none" stroke="black" cx="439.377" cy="-897" rx="55.8501" ry="18"/>
<text text-anchor="middle" x="439.377" y="-894" font-family="Helvetica,sans-Serif" font-size="10.00">Remove Class</text>
</g>
<!-- A9&#45;&gt;A17 -->
<g id="edge17" class="edge"><title>A9&#45;&gt;A17</title>
<path fill="none" stroke="black" stroke-dasharray="5,2" d="M274.988,-962.606C299.441,-951.454 333.593,-936.248 364.068,-924 372.766,-920.504 382.112,-916.952 391.141,-913.622"/>
<polygon fill="black" stroke="black" points="400.769,-910.109 392.917,-917.764 396.072,-911.823 391.375,-913.537 391.375,-913.537 391.375,-913.537 396.072,-911.823 389.832,-909.31 400.769,-910.109 400.769,-910.109"/>
</g>
<!-- A18 -->
<g id="node19" class="node"><title>A18</title>
<ellipse fill="none" stroke="black" cx="439.377" cy="-843" rx="62.8937" ry="18"/>
<text text-anchor="middle" x="439.377" y="-840" font-family="Helvetica,sans-Serif" font-size="10.00">Remove Teacher</text>
</g>
<!-- A9&#45;&gt;A18 -->
<g id="edge18" class="edge"><title>A9&#45;&gt;A18</title>
<path fill="none" stroke="black" stroke-dasharray="5,2" d="M257.571,-960.41C279.469,-936.959 321.202,-895.459 364.068,-870 370.706,-866.057 378.015,-862.544 385.379,-859.461"/>
<polygon fill="black" stroke="black" points="394.69,-855.787 387.04,-863.643 390.039,-857.622 385.388,-859.457 385.388,-859.457 385.388,-859.457 390.039,-857.622 383.736,-855.272 394.69,-855.787 394.69,-855.787"/>
</g>
<!-- A19 -->
<g id="node20" class="node"><title>A19</title>
<ellipse fill="none" stroke="black" cx="439.377" cy="-789" rx="61.7348" ry="18"/>
<text text-anchor="middle" x="439.377" y="-786" font-family="Helvetica,sans-Serif" font-size="10.00">Remove Student</text>
</g>
<!-- A9&#45;&gt;A19 -->
<g id="edge19" class="edge"><title>A9&#45;&gt;A19</title>
<path fill="none" stroke="black" stroke-dasharray="5,2" d="M250.805,-959.968C268.278,-926.859 309.79,-856.102 364.068,-816 369.912,-811.682 376.517,-807.995 383.318,-804.864"/>
<polygon fill="black" stroke="black" points="392.66,-800.93 385.19,-808.958 388.052,-802.87 383.444,-804.811 383.444,-804.811 383.444,-804.811 388.052,-802.87 381.697,-800.663 392.66,-800.93 392.66,-800.93"/>
</g>
<!-- A22 -->
<g id="node23" class="node"><title>A22</title>
<ellipse fill="none" stroke="black" cx="439.377" cy="-391" rx="49.4883" ry="18"/>
<text text-anchor="middle" x="439.377" y="-388" font-family="Helvetica,sans-Serif" font-size="10.00">View Roster</text>
</g>
<!-- A10&#45;&gt;A22 -->
<g id="edge25" class="edge"><title>A10&#45;&gt;A22</title>
<path fill="none" stroke="black" stroke-dasharray="5,2" d="M282.025,-437.918C313.588,-428.447 357.587,-415.243 390.873,-405.255"/>
<polygon fill="black" stroke="black" points="400.833,-402.266 392.548,-409.451 396.044,-403.703 391.255,-405.14 391.255,-405.14 391.255,-405.14 396.044,-403.703 389.961,-400.83 400.833,-402.266 400.833,-402.266"/>
</g>
<!-- A23 -->
<g id="node24" class="node"><title>A23</title>
<ellipse fill="none" stroke="black" cx="439.377" cy="-337" rx="51.0052" ry="18"/>
<text text-anchor="middle" x="439.377" y="-334" font-family="Helvetica,sans-Serif" font-size="10.00">View Grades</text>
</g>
<!-- A10&#45;&gt;A23 -->
<g id="edge26" class="edge"><title>A10&#45;&gt;A23</title>
<path fill="none" stroke="black" stroke-dasharray="5,2" d="M283.728,-438.435C294.169,-434.481 304.969,-429.395 314.068,-423 342.19,-403.237 335.859,-383.638 364.068,-364 371.352,-358.929 379.698,-354.697 388.104,-351.204"/>
<polygon fill="black" stroke="black" points="397.567,-347.568 389.846,-355.355 392.899,-349.361 388.232,-351.155 388.232,-351.155 388.232,-351.155 392.899,-349.361 386.618,-346.954 397.567,-347.568 397.567,-347.568"/>
</g>
<!-- A24 -->
<g id="node25" class="node"><title>A24</title>
<ellipse fill="none" stroke="black" cx="439.377" cy="-283" rx="65.9059" ry="18"/>
<text text-anchor="middle" x="439.377" y="-280" font-family="Helvetica,sans-Serif" font-size="10.00">View Assignments</text>
</g>
<!-- A10&#45;&gt;A24 -->
<g id="edge27" class="edge"><title>A10&#45;&gt;A24</title>
<path fill="none" stroke="black" stroke-dasharray="5,2" d="M286.236,-439.688C296.28,-435.746 306.267,-430.352 314.068,-423 354.034,-385.333 323.935,-347.49 364.068,-310 368.676,-305.696 374.023,-302.067 379.695,-299.009"/>
<polygon fill="black" stroke="black" points="388.817,-294.66 381.727,-303.026 384.304,-296.812 379.79,-298.964 379.79,-298.964 379.79,-298.964 384.304,-296.812 377.854,-294.902 388.817,-294.66 388.817,-294.66"/>
</g>
<!-- A25 -->
<g id="node26" class="node"><title>A25</title>
<ellipse fill="none" stroke="black" cx="439.377" cy="-229" rx="61.9069" ry="18"/>
<text text-anchor="middle" x="439.377" y="-226" font-family="Helvetica,sans-Serif" font-size="10.00">View Attendance</text>
</g>
<!-- A10&#45;&gt;A25 -->
<g id="edge28" class="edge"><title>A10&#45;&gt;A25</title>
<path fill="none" stroke="black" stroke-dasharray="5,2" d="M287.289,-440.212C297.181,-436.26 306.836,-430.73 314.068,-423 367.002,-366.425 310.884,-312.34 364.068,-256 368.52,-251.284 373.86,-247.389 379.609,-244.172"/>
<polygon fill="black" stroke="black" points="388.909,-239.656 381.879,-248.072 384.412,-241.84 379.914,-244.024 379.914,-244.024 379.914,-244.024 384.412,-241.84 377.948,-239.976 388.909,-239.656 388.909,-239.656"/>
</g>
<!-- A26 -->
<g id="node27" class="node"><title>A26</title>
<ellipse fill="none" stroke="black" cx="439.377" cy="-175" rx="48.839" ry="18"/>
<text text-anchor="middle" x="439.377" y="-172" font-family="Helvetica,sans-Serif" font-size="10.00">Add Grades</text>
</g>
<!-- A10&#45;&gt;A26 -->
<g id="edge29" class="edge"><title>A10&#45;&gt;A26</title>
<path fill="none" stroke="black" stroke-dasharray="5,2" d="M288.049,-440.409C297.794,-436.453 307.192,-430.872 314.068,-423 380.316,-347.154 297.484,-277.551 364.068,-202 369.936,-195.341 377.582,-190.323 385.731,-186.543"/>
<polygon fill="black" stroke="black" points="395.079,-182.778 387.484,-190.688 390.441,-184.646 385.803,-186.514 385.803,-186.514 385.803,-186.514 390.441,-184.646 384.122,-182.34 395.079,-182.778 395.079,-182.778"/>
</g>
<!-- A27 -->
<g id="node28" class="node"><title>A27</title>
<ellipse fill="none" stroke="black" cx="439.377" cy="-121" rx="63.7409" ry="18"/>
<text text-anchor="middle" x="439.377" y="-118" font-family="Helvetica,sans-Serif" font-size="10.00">Add Assignments</text>
</g>
<!-- A10&#45;&gt;A27 -->
<g id="edge30" class="edge"><title>A10&#45;&gt;A27</title>
<path fill="none" stroke="black" stroke-dasharray="5,2" d="M288.294,-440.619C298.03,-436.655 307.362,-431.017 314.068,-423 393.776,-327.718 283.938,-242.928 364.068,-148 367.982,-143.364 372.759,-139.523 377.986,-136.342"/>
<polygon fill="black" stroke="black" points="387.132,-131.588 380.335,-140.193 382.696,-133.894 378.259,-136.2 378.259,-136.2 378.259,-136.2 382.696,-133.894 376.184,-132.208 387.132,-131.588 387.132,-131.588"/>
</g>
<!-- A28 -->
<g id="node29" class="node"><title>A28</title>
<ellipse fill="none" stroke="black" cx="439.377" cy="-730" rx="55.6304" ry="22.7556"/>
<text text-anchor="middle" x="439.377" y="-733" font-family="Helvetica,sans-Serif" font-size="10.00">Add Class</text>
<text text-anchor="middle" x="439.377" y="-721" font-family="Helvetica,sans-Serif" font-size="10.00">Attendance</text>
</g>
<!-- A10&#45;&gt;A28 -->
<g id="edge31" class="edge"><title>A10&#45;&gt;A28</title>
<path fill="none" stroke="black" stroke-dasharray="5,2" d="M246.062,-468.192C257.555,-513.119 293.057,-630.558 364.068,-698 370.012,-703.645 377.107,-708.379 384.521,-712.325"/>
<polygon fill="black" stroke="black" points="394.018,-716.91 383.056,-716.615 389.515,-714.736 385.012,-712.562 385.012,-712.562 385.012,-712.562 389.515,-714.736 386.969,-708.51 394.018,-716.91 394.018,-716.91"/>
</g>
<!-- A29 -->
<g id="node30" class="node"><title>A29</title>
<ellipse fill="none" stroke="black" cx="439.377" cy="-671" rx="60.7167" ry="18"/>
<text text-anchor="middle" x="439.377" y="-668" font-family="Helvetica,sans-Serif" font-size="10.00">Remove Grades</text>
</g>
<!-- A10&#45;&gt;A29 -->
<g id="edge32" class="edge"><title>A10&#45;&gt;A29</title>
<path fill="none" stroke="black" stroke-dasharray="5,2" d="M248.413,-468.031C263.292,-505.98 302.845,-594.653 364.068,-644 369.725,-648.56 376.22,-652.389 382.965,-655.593"/>
<polygon fill="black" stroke="black" points="392.261,-659.587 381.297,-659.774 387.667,-657.613 383.073,-655.64 383.073,-655.64 383.073,-655.64 387.667,-657.613 384.849,-651.505 392.261,-659.587 392.261,-659.587"/>
</g>
<!-- A30 -->
<g id="node31" class="node"><title>A30</title>
<ellipse fill="none" stroke="black" cx="439.377" cy="-617" rx="75.1188" ry="18"/>
<text text-anchor="middle" x="439.377" y="-614" font-family="Helvetica,sans-Serif" font-size="10.00">Remove Assignments</text>
</g>
<!-- A10&#45;&gt;A30 -->
<g id="edge33" class="edge"><title>A10&#45;&gt;A30</title>
<path fill="none" stroke="black" stroke-dasharray="5,2" d="M252.777,-467.595C271.968,-496.911 314.278,-555.891 364.068,-590 369.195,-593.513 374.834,-596.627 380.642,-599.375"/>
<polygon fill="black" stroke="black" points="389.86,-603.395 378.895,-603.523 385.277,-601.397 380.694,-599.398 380.694,-599.398 380.694,-599.398 385.277,-601.397 382.493,-595.273 389.86,-603.395 389.86,-603.395"/>
</g>
<!-- A31 -->
<g id="node32" class="node"><title>A31</title>
<ellipse fill="none" stroke="black" cx="439.377" cy="-563" rx="57.7141" ry="18"/>
<text text-anchor="middle" x="439.377" y="-560" font-family="Helvetica,sans-Serif" font-size="10.00">Update Grades</text>
</g>
<!-- A10&#45;&gt;A31 -->
<g id="edge34" class="edge"><title>A10&#45;&gt;A31</title>
<path fill="none" stroke="black" stroke-dasharray="5,2" d="M261.894,-466.688C285.295,-485.466 325.631,-515.956 364.068,-536 371.678,-539.969 380.005,-543.609 388.243,-546.846"/>
<polygon fill="black" stroke="black" points="397.825,-550.455 386.881,-551.141 393.146,-548.692 388.467,-546.93 388.467,-546.93 388.467,-546.93 393.146,-548.692 390.053,-542.719 397.825,-550.455 397.825,-550.455"/>
</g>
<!-- A32 -->
<g id="node33" class="node"><title>A32</title>
<ellipse fill="none" stroke="black" cx="439.377" cy="-509" rx="72.1162" ry="18"/>
<text text-anchor="middle" x="439.377" y="-506" font-family="Helvetica,sans-Serif" font-size="10.00">Update Assignments</text>
</g>
<!-- A10&#45;&gt;A32 -->
<g id="edge35" class="edge"><title>A10&#45;&gt;A32</title>
<path fill="none" stroke="black" stroke-dasharray="5,2" d="M282.025,-462.082C311.042,-470.789 350.571,-482.651 382.623,-492.269"/>
<polygon fill="black" stroke="black" points="392.31,-495.176 381.438,-496.612 387.521,-493.739 382.732,-492.302 382.732,-492.302 382.732,-492.302 387.521,-493.739 384.025,-487.992 392.31,-495.176 392.31,-495.176"/>
</g>
<!-- A33 -->
<g id="node34" class="node"><title>A33</title>
<ellipse fill="none" stroke="black" cx="439.377" cy="-450" rx="62.4658" ry="22.7556"/>
<text text-anchor="middle" x="439.377" y="-453" font-family="Helvetica,sans-Serif" font-size="10.00">Update Class</text>
<text text-anchor="middle" x="439.377" y="-441" font-family="Helvetica,sans-Serif" font-size="10.00">Attendance</text>
</g>
<!-- A10&#45;&gt;A33 -->
<g id="edge36" class="edge"><title>A10&#45;&gt;A33</title>
<path fill="none" stroke="black" stroke-dasharray="5,2" d="M296.27,-450C318.049,-450 343.433,-450 366.673,-450"/>
<polygon fill="black" stroke="black" points="376.831,-450 366.831,-454.5 371.831,-450 366.831,-450 366.831,-450 366.831,-450 371.831,-450 366.831,-445.5 376.831,-450 376.831,-450"/>
</g>
</g>
</svg>
