<?xml version="1.0" encoding="UTF-8" standalone="no"?>
<!DOCTYPE svg PUBLIC "-//W3C//DTD SVG 1.1//EN"
 "http://www.w3.org/Graphics/SVG/1.1/DTD/svg11.dtd">
<!-- Generated by graphviz version 2.38.0 (20140413.2041)
 -->
<!-- Title: G Pages: 1 -->
<svg width="523pt" height="1193pt"
 viewBox="0.00 0.00 522.69 1193.00" xmlns="http://www.w3.org/2000/svg" xmlns:xlink="http://www.w3.org/1999/xlink">
<g id="graph0" class="graph" transform="scale(1 1) rotate(0) translate(4 1189)">
<title>G</title>
<polygon fill="white" stroke="none" points="-4,4 -4,-1189 518.686,-1189 518.686,4 -4,4"/>
<!-- A0 -->
<g id="node1" class="node"><title>A0</title>
<g transform="translate(58.7285,-123)" style="fill:none;stroke:black;stroke-width:1px"><circle cx="0" cy="-20" r="7.5" />
                <line x1="0" y1="-12.5" x2="0" y2="5" />
                <line x1="-15" y1="-5" x2="15" y2="-5" />
                <line x1="0" y1="5" x2="-15" y2="17" />
                <line x1="0" y1="5" x2="15" y2="17" /></g>
<text text-anchor="middle" x="58.7285" y="-98" font-family="Helvetica,sans-Serif" font-size="10.00">Student</text>
</g>
<!-- A3 -->
<g id="node4" class="node"><title>A3</title>
<ellipse fill="none" stroke="black" cx="240.762" cy="-342" rx="31.5864" ry="18"/>
<text text-anchor="middle" x="240.762" y="-339" font-family="Helvetica,sans-Serif" font-size="10.00">Login</text>
</g>
<!-- A0&#45;&gt;A3 -->
<g id="edge1" class="edge"><title>A0&#45;&gt;A3</title>
<path fill="none" stroke="black" d="M84.1878,-162.257C94.8059,-178.464 107.145,-197.947 117.457,-216 141.907,-258.802 130.733,-282.119 167.457,-315 179.536,-325.815 196.35,-332.439 210.724,-336.417"/>
</g>
<!-- A4 -->
<g id="node5" class="node"><title>A4</title>
<ellipse fill="none" stroke="black" cx="240.762" cy="-18" rx="60.039" ry="18"/>
<text text-anchor="middle" x="240.762" y="-15" font-family="Helvetica,sans-Serif" font-size="10.00">Enroll in a Class</text>
</g>
<!-- A0&#45;&gt;A4 -->
<g id="edge4" class="edge"><title>A0&#45;&gt;A4</title>
<path fill="none" stroke="black" d="M101.821,-89.8952C120.977,-74.6662 144.471,-57.5887 167.457,-45 177.212,-39.6578 188.242,-34.9414 198.695,-31.0068"/>
</g>
<!-- A5 -->
<g id="node6" class="node"><title>A5</title>
<ellipse fill="none" stroke="black" cx="240.762" cy="-126" rx="73.1115" ry="18"/>
<text text-anchor="middle" x="240.762" y="-123" font-family="Helvetica,sans-Serif" font-size="10.00">View Class Schedule</text>
</g>
<!-- A0&#45;&gt;A5 -->
<g id="edge5" class="edge"><title>A0&#45;&gt;A5</title>
<path fill="none" stroke="black" d="M105.624,-126C124.377,-126 146.523,-126 167.359,-126"/>
</g>
<!-- A6 -->
<g id="node7" class="node"><title>A6</title>
<ellipse fill="none" stroke="black" cx="240.762" cy="-72" rx="55.0281" ry="18"/>
<text text-anchor="middle" x="240.762" y="-69" font-family="Helvetica,sans-Serif" font-size="10.00">Check Grades</text>
</g>
<!-- A0&#45;&gt;A6 -->
<g id="edge6" class="edge"><title>A0&#45;&gt;A6</title>
<path fill="none" stroke="black" d="M105.624,-112.234C134.586,-103.547 171.643,-92.4319 199.466,-84.0866"/>
</g>
<!-- A7 -->
<g id="node8" class="node"><title>A7</title>
<ellipse fill="none" stroke="black" cx="240.762" cy="-180" rx="60.8636" ry="18"/>
<text text-anchor="middle" x="240.762" y="-177" font-family="Helvetica,sans-Serif" font-size="10.00">View Class Files</text>
</g>
<!-- A0&#45;&gt;A7 -->
<g id="edge7" class="edge"><title>A0&#45;&gt;A7</title>
<path fill="none" stroke="black" d="M105.624,-139.766C133.857,-148.234 169.782,-159.01 197.347,-167.278"/>
</g>
<!-- A1 -->
<g id="node2" class="node"><title>A1</title>
<g transform="translate(58.7285,-258)" style="fill:none;stroke:black;stroke-width:1px"><circle cx="0" cy="-20" r="7.5" />
                <line x1="0" y1="-12.5" x2="0" y2="5" />
                <line x1="-15" y1="-5" x2="15" y2="-5" />
                <line x1="0" y1="5" x2="-15" y2="17" />
                <line x1="0" y1="5" x2="15" y2="17" /></g>
<text text-anchor="middle" x="58.7285" y="-233" font-family="Helvetica,sans-Serif" font-size="10.00">Teacher</text>
</g>
<!-- A1&#45;&gt;A3 -->
<g id="edge2" class="edge"><title>A1&#45;&gt;A3</title>
<path fill="none" stroke="black" d="M106.404,-285.767C125.164,-295.359 147.128,-306.14 167.457,-315 182.443,-321.532 199.567,-327.97 213.388,-332.92"/>
</g>
<!-- A1&#45;&gt;A5 -->
<g id="edge20" class="edge"><title>A1&#45;&gt;A5</title>
<path fill="none" stroke="black" d="M88.5872,-224.908C108.662,-201.759 137.173,-172.497 167.457,-153 175.456,-147.85 184.58,-143.48 193.59,-139.853"/>
</g>
<!-- A1&#45;&gt;A7 -->
<g id="edge23" class="edge"><title>A1&#45;&gt;A7</title>
<path fill="none" stroke="black" d="M106.404,-236.233C125.164,-226.641 147.128,-215.86 167.457,-207 178.144,-202.342 189.918,-197.732 200.806,-193.675"/>
</g>
<!-- A9 -->
<g id="node10" class="node"><title>A9</title>
<ellipse fill="none" stroke="black" cx="240.762" cy="-396" rx="55.0269" ry="18"/>
<text text-anchor="middle" x="240.762" y="-393" font-family="Helvetica,sans-Serif" font-size="10.00">Manage Class</text>
</g>
<!-- A1&#45;&gt;A9 -->
<g id="edge19" class="edge"><title>A1&#45;&gt;A9</title>
<path fill="none" stroke="black" d="M88.5872,-297.092C108.662,-320.241 137.173,-349.503 167.457,-369 177.034,-375.166 188.222,-380.213 198.896,-384.206"/>
</g>
<!-- A19 -->
<g id="node20" class="node"><title>A19</title>
<ellipse fill="none" stroke="black" cx="240.762" cy="-288" rx="66.8999" ry="18"/>
<text text-anchor="middle" x="240.762" y="-285" font-family="Helvetica,sans-Serif" font-size="10.00">Upload Class Files</text>
</g>
<!-- A1&#45;&gt;A19 -->
<g id="edge21" class="edge"><title>A1&#45;&gt;A19</title>
<path fill="none" stroke="black" d="M106.56,-268.023C129.585,-271.477 157.551,-275.671 181.902,-279.323"/>
</g>
<!-- A20 -->
<g id="node21" class="node"><title>A20</title>
<ellipse fill="none" stroke="black" cx="240.762" cy="-234" rx="65.0572" ry="18"/>
<text text-anchor="middle" x="240.762" y="-231" font-family="Helvetica,sans-Serif" font-size="10.00">Delete Class Files</text>
</g>
<!-- A1&#45;&gt;A20 -->
<g id="edge22" class="edge"><title>A1&#45;&gt;A20</title>
<path fill="none" stroke="black" d="M106.56,-253.977C129.898,-250.477 158.311,-246.215 182.891,-242.529"/>
</g>
<!-- A2 -->
<g id="node3" class="node"><title>A2</title>
<g transform="translate(58.7285,-393)" style="fill:none;stroke:black;stroke-width:1px"><circle cx="0" cy="-20" r="7.5" />
                <line x1="0" y1="-12.5" x2="0" y2="5" />
                <line x1="-15" y1="-5" x2="15" y2="-5" />
                <line x1="0" y1="5" x2="-15" y2="17" />
                <line x1="0" y1="5" x2="15" y2="17" /></g>
<text text-anchor="middle" x="58.7285" y="-368" font-family="Helvetica,sans-Serif" font-size="10.00">Administrator</text>
</g>
<!-- A2&#45;&gt;A3 -->
<g id="edge3" class="edge"><title>A2&#45;&gt;A3</title>
<path fill="none" stroke="black" d="M117.683,-378.617C149.343,-369.121 187.09,-357.799 212.143,-350.284"/>
</g>
<!-- A8 -->
<g id="node9" class="node"><title>A8</title>
<ellipse fill="none" stroke="black" cx="240.762" cy="-924" rx="65.9287" ry="18"/>
<text text-anchor="middle" x="240.762" y="-921" font-family="Helvetica,sans-Serif" font-size="10.00">Manage Database</text>
</g>
<!-- A2&#45;&gt;A8 -->
<g id="edge8" class="edge"><title>A2&#45;&gt;A8</title>
<path fill="none" stroke="black" d="M72.103,-432.292C107.415,-535.855 207.78,-830.203 233.63,-906.015"/>
</g>
<!-- A2&#45;&gt;A9 -->
<g id="edge9" class="edge"><title>A2&#45;&gt;A9</title>
<path fill="none" stroke="black" d="M117.683,-396C139.373,-396 163.918,-396 185.283,-396"/>
</g>
<!-- A10 -->
<g id="node11" class="node"><title>A10</title>
<ellipse fill="none" stroke="black" cx="439.377" cy="-1167" rx="44.4737" ry="18"/>
<text text-anchor="middle" x="439.377" y="-1164" font-family="Helvetica,sans-Serif" font-size="10.00">Add Class</text>
</g>
<!-- A8&#45;&gt;A10 -->
<g id="edge10" class="edge"><title>A8&#45;&gt;A10</title>
<path fill="none" stroke="black" stroke-dasharray="5,2" d="M247.213,-942.187C260.44,-983.31 298.097,-1084.2 364.068,-1140 371.613,-1146.38 380.791,-1151.31 390.087,-1155.1"/>
<polygon fill="black" stroke="black" points="399.753,-1158.64 388.815,-1159.42 395.059,-1156.92 390.365,-1155.2 390.365,-1155.2 390.365,-1155.2 395.059,-1156.92 391.915,-1150.97 399.753,-1158.64 399.753,-1158.64"/>
</g>
<!-- A11 -->
<g id="node12" class="node"><title>A11</title>
<ellipse fill="none" stroke="black" cx="439.377" cy="-1113" rx="51.0172" ry="18"/>
<text text-anchor="middle" x="439.377" y="-1110" font-family="Helvetica,sans-Serif" font-size="10.00">Add Teacher</text>
</g>
<!-- A8&#45;&gt;A11 -->
<g id="edge11" class="edge"><title>A8&#45;&gt;A11</title>
<path fill="none" stroke="black" stroke-dasharray="5,2" d="M250.805,-942.032C268.278,-975.141 309.79,-1045.9 364.068,-1086 371.127,-1091.22 379.294,-1095.51 387.577,-1099.02"/>
<polygon fill="black" stroke="black" points="396.925,-1102.65 385.974,-1103.22 392.265,-1100.84 387.604,-1099.03 387.604,-1099.03 387.604,-1099.03 392.265,-1100.84 389.235,-1094.83 396.925,-1102.65 396.925,-1102.65"/>
</g>
<!-- A12 -->
<g id="node13" class="node"><title>A12</title>
<ellipse fill="none" stroke="black" cx="439.377" cy="-1059" rx="49.8571" ry="18"/>
<text text-anchor="middle" x="439.377" y="-1056" font-family="Helvetica,sans-Serif" font-size="10.00">Add Student</text>
</g>
<!-- A8&#45;&gt;A12 -->
<g id="edge12" class="edge"><title>A8&#45;&gt;A12</title>
<path fill="none" stroke="black" stroke-dasharray="5,2" d="M257.571,-941.59C279.469,-965.041 321.202,-1006.54 364.068,-1032 372.128,-1036.79 381.176,-1040.94 390.112,-1044.46"/>
<polygon fill="black" stroke="black" points="399.712,-1048.03 388.771,-1048.76 395.025,-1046.29 390.339,-1044.54 390.339,-1044.54 390.339,-1044.54 395.025,-1046.29 391.907,-1040.33 399.712,-1048.03 399.712,-1048.03"/>
</g>
<!-- A13 -->
<g id="node14" class="node"><title>A13</title>
<ellipse fill="none" stroke="black" cx="439.377" cy="-1005" rx="52.8476" ry="18"/>
<text text-anchor="middle" x="439.377" y="-1002" font-family="Helvetica,sans-Serif" font-size="10.00">Update Class</text>
</g>
<!-- A8&#45;&gt;A13 -->
<g id="edge13" class="edge"><title>A8&#45;&gt;A13</title>
<path fill="none" stroke="black" stroke-dasharray="5,2" d="M274.988,-939.394C299.441,-950.546 333.593,-965.752 364.068,-978 373.048,-981.609 382.718,-985.278 392.017,-988.701"/>
<polygon fill="black" stroke="black" points="401.529,-992.165 390.593,-992.971 396.831,-990.454 392.133,-988.743 392.133,-988.743 392.133,-988.743 396.831,-990.454 393.673,-984.514 401.529,-992.165 401.529,-992.165"/>
</g>
<!-- A14 -->
<g id="node15" class="node"><title>A14</title>
<ellipse fill="none" stroke="black" cx="439.377" cy="-951" rx="59.8912" ry="18"/>
<text text-anchor="middle" x="439.377" y="-948" font-family="Helvetica,sans-Serif" font-size="10.00">Update Teacher</text>
</g>
<!-- A8&#45;&gt;A14 -->
<g id="edge14" class="edge"><title>A8&#45;&gt;A14</title>
<path fill="none" stroke="black" stroke-dasharray="5,2" d="M299.955,-931.991C323.339,-935.202 350.377,-938.915 374.318,-942.203"/>
<polygon fill="black" stroke="black" points="384.369,-943.583 373.85,-946.681 379.415,-942.903 374.462,-942.223 374.462,-942.223 374.462,-942.223 379.415,-942.903 375.074,-937.765 384.369,-943.583 384.369,-943.583"/>
</g>
<!-- A15 -->
<g id="node16" class="node"><title>A15</title>
<ellipse fill="none" stroke="black" cx="439.377" cy="-897" rx="58.7322" ry="18"/>
<text text-anchor="middle" x="439.377" y="-894" font-family="Helvetica,sans-Serif" font-size="10.00">Update Student</text>
</g>
<!-- A8&#45;&gt;A15 -->
<g id="edge15" class="edge"><title>A8&#45;&gt;A15</title>
<path fill="none" stroke="black" stroke-dasharray="5,2" d="M299.955,-916.009C323.735,-912.743 351.294,-908.959 375.532,-905.63"/>
<polygon fill="black" stroke="black" points="385.696,-904.234 376.401,-910.053 380.743,-904.915 375.789,-905.595 375.789,-905.595 375.789,-905.595 380.743,-904.915 375.177,-901.137 385.696,-904.234 385.696,-904.234"/>
</g>
<!-- A16 -->
<g id="node17" class="node"><title>A16</title>
<ellipse fill="none" stroke="black" cx="439.377" cy="-843" rx="55.8501" ry="18"/>
<text text-anchor="middle" x="439.377" y="-840" font-family="Helvetica,sans-Serif" font-size="10.00">Remove Class</text>
</g>
<!-- A8&#45;&gt;A16 -->
<g id="edge16" class="edge"><title>A8&#45;&gt;A16</title>
<path fill="none" stroke="black" stroke-dasharray="5,2" d="M274.988,-908.606C299.441,-897.454 333.593,-882.248 364.068,-870 372.766,-866.504 382.112,-862.952 391.141,-859.622"/>
<polygon fill="black" stroke="black" points="400.769,-856.109 392.917,-863.764 396.072,-857.823 391.375,-859.537 391.375,-859.537 391.375,-859.537 396.072,-857.823 389.832,-855.31 400.769,-856.109 400.769,-856.109"/>
</g>
<!-- A17 -->
<g id="node18" class="node"><title>A17</title>
<ellipse fill="none" stroke="black" cx="439.377" cy="-789" rx="62.8937" ry="18"/>
<text text-anchor="middle" x="439.377" y="-786" font-family="Helvetica,sans-Serif" font-size="10.00">Remove Teacher</text>
</g>
<!-- A8&#45;&gt;A17 -->
<g id="edge17" class="edge"><title>A8&#45;&gt;A17</title>
<path fill="none" stroke="black" stroke-dasharray="5,2" d="M257.571,-906.41C279.469,-882.959 321.202,-841.459 364.068,-816 370.706,-812.057 378.015,-808.544 385.379,-805.461"/>
<polygon fill="black" stroke="black" points="394.69,-801.787 387.04,-809.643 390.039,-803.622 385.388,-805.457 385.388,-805.457 385.388,-805.457 390.039,-803.622 383.736,-801.272 394.69,-801.787 394.69,-801.787"/>
</g>
<!-- A18 -->
<g id="node19" class="node"><title>A18</title>
<ellipse fill="none" stroke="black" cx="439.377" cy="-735" rx="61.7348" ry="18"/>
<text text-anchor="middle" x="439.377" y="-732" font-family="Helvetica,sans-Serif" font-size="10.00">Remove Student</text>
</g>
<!-- A8&#45;&gt;A18 -->
<g id="edge18" class="edge"><title>A8&#45;&gt;A18</title>
<path fill="none" stroke="black" stroke-dasharray="5,2" d="M250.805,-905.968C268.278,-872.859 309.79,-802.102 364.068,-762 369.912,-757.682 376.517,-753.995 383.318,-750.864"/>
<polygon fill="black" stroke="black" points="392.66,-746.93 385.19,-754.958 388.052,-748.87 383.444,-750.811 383.444,-750.811 383.444,-750.811 388.052,-748.87 381.697,-746.663 392.66,-746.93 392.66,-746.93"/>
</g>
<!-- A21 -->
<g id="node22" class="node"><title>A21</title>
<ellipse fill="none" stroke="black" cx="439.377" cy="-337" rx="49.4883" ry="18"/>
<text text-anchor="middle" x="439.377" y="-334" font-family="Helvetica,sans-Serif" font-size="10.00">View Roster</text>
</g>
<!-- A9&#45;&gt;A21 -->
<g id="edge24" class="edge"><title>A9&#45;&gt;A21</title>
<path fill="none" stroke="black" stroke-dasharray="5,2" d="M282.025,-383.918C313.588,-374.447 357.587,-361.243 390.873,-351.255"/>
<polygon fill="black" stroke="black" points="400.833,-348.266 392.548,-355.451 396.044,-349.703 391.255,-351.14 391.255,-351.14 391.255,-351.14 396.044,-349.703 389.961,-346.83 400.833,-348.266 400.833,-348.266"/>
</g>
<!-- A22 -->
<g id="node23" class="node"><title>A22</title>
<ellipse fill="none" stroke="black" cx="439.377" cy="-283" rx="51.0052" ry="18"/>
<text text-anchor="middle" x="439.377" y="-280" font-family="Helvetica,sans-Serif" font-size="10.00">View Grades</text>
</g>
<!-- A9&#45;&gt;A22 -->
<g id="edge25" class="edge"><title>A9&#45;&gt;A22</title>
<path fill="none" stroke="black" stroke-dasharray="5,2" d="M283.728,-384.435C294.169,-380.481 304.969,-375.395 314.068,-369 342.19,-349.237 335.859,-329.638 364.068,-310 371.352,-304.929 379.698,-300.697 388.104,-297.204"/>
<polygon fill="black" stroke="black" points="397.567,-293.568 389.846,-301.355 392.899,-295.361 388.232,-297.155 388.232,-297.155 388.232,-297.155 392.899,-295.361 386.618,-292.954 397.567,-293.568 397.567,-293.568"/>
</g>
<!-- A23 -->
<g id="node24" class="node"><title>A23</title>
<ellipse fill="none" stroke="black" cx="439.377" cy="-229" rx="65.9059" ry="18"/>
<text text-anchor="middle" x="439.377" y="-226" font-family="Helvetica,sans-Serif" font-size="10.00">View Assignments</text>
</g>
<!-- A9&#45;&gt;A23 -->
<g id="edge26" class="edge"><title>A9&#45;&gt;A23</title>
<path fill="none" stroke="black" stroke-dasharray="5,2" d="M286.236,-385.688C296.28,-381.746 306.267,-376.352 314.068,-369 354.034,-331.333 323.935,-293.49 364.068,-256 368.676,-251.696 374.023,-248.067 379.695,-245.009"/>
<polygon fill="black" stroke="black" points="388.817,-240.66 381.727,-249.026 384.304,-242.812 379.79,-244.964 379.79,-244.964 379.79,-244.964 384.304,-242.812 377.854,-240.902 388.817,-240.66 388.817,-240.66"/>
</g>
<!-- A24 -->
<g id="node25" class="node"><title>A24</title>
<ellipse fill="none" stroke="black" cx="439.377" cy="-175" rx="61.9069" ry="18"/>
<text text-anchor="middle" x="439.377" y="-172" font-family="Helvetica,sans-Serif" font-size="10.00">View Attendance</text>
</g>
<!-- A9&#45;&gt;A24 -->
<g id="edge27" class="edge"><title>A9&#45;&gt;A24</title>
<path fill="none" stroke="black" stroke-dasharray="5,2" d="M287.289,-386.212C297.181,-382.26 306.836,-376.73 314.068,-369 367.002,-312.425 310.884,-258.34 364.068,-202 368.52,-197.284 373.86,-193.389 379.609,-190.172"/>
<polygon fill="black" stroke="black" points="388.909,-185.656 381.879,-194.072 384.412,-187.84 379.914,-190.024 379.914,-190.024 379.914,-190.024 384.412,-187.84 377.948,-185.976 388.909,-185.656 388.909,-185.656"/>
</g>
<!-- A25 -->
<g id="node26" class="node"><title>A25</title>
<ellipse fill="none" stroke="black" cx="439.377" cy="-121" rx="48.839" ry="18"/>
<text text-anchor="middle" x="439.377" y="-118" font-family="Helvetica,sans-Serif" font-size="10.00">Add Grades</text>
</g>
<!-- A9&#45;&gt;A25 -->
<g id="edge28" class="edge"><title>A9&#45;&gt;A25</title>
<path fill="none" stroke="black" stroke-dasharray="5,2" d="M288.049,-386.409C297.794,-382.453 307.192,-376.872 314.068,-369 380.316,-293.154 297.484,-223.551 364.068,-148 369.936,-141.341 377.582,-136.323 385.731,-132.543"/>
<polygon fill="black" stroke="black" points="395.079,-128.778 387.484,-136.688 390.441,-130.646 385.803,-132.514 385.803,-132.514 385.803,-132.514 390.441,-130.646 384.122,-128.34 395.079,-128.778 395.079,-128.778"/>
</g>
<!-- A26 -->
<g id="node27" class="node"><title>A26</title>
<ellipse fill="none" stroke="black" cx="439.377" cy="-67" rx="63.7409" ry="18"/>
<text text-anchor="middle" x="439.377" y="-64" font-family="Helvetica,sans-Serif" font-size="10.00">Add Assignments</text>
</g>
<!-- A9&#45;&gt;A26 -->
<g id="edge29" class="edge"><title>A9&#45;&gt;A26</title>
<path fill="none" stroke="black" stroke-dasharray="5,2" d="M288.294,-386.619C298.03,-382.655 307.362,-377.017 314.068,-369 393.776,-273.718 283.938,-188.928 364.068,-94 367.982,-89.3636 372.759,-85.5233 377.986,-82.3425"/>
<polygon fill="black" stroke="black" points="387.132,-77.5878 380.335,-86.193 382.696,-79.894 378.259,-82.2003 378.259,-82.2003 378.259,-82.2003 382.696,-79.894 376.184,-78.2075 387.132,-77.5878 387.132,-77.5878"/>
</g>
<!-- A27 -->
<g id="node28" class="node"><title>A27</title>
<ellipse fill="none" stroke="black" cx="439.377" cy="-676" rx="55.6304" ry="22.7556"/>
<text text-anchor="middle" x="439.377" y="-679" font-family="Helvetica,sans-Serif" font-size="10.00">Add Class</text>
<text text-anchor="middle" x="439.377" y="-667" font-family="Helvetica,sans-Serif" font-size="10.00">Attendance</text>
</g>
<!-- A9&#45;&gt;A27 -->
<g id="edge30" class="edge"><title>A9&#45;&gt;A27</title>
<path fill="none" stroke="black" stroke-dasharray="5,2" d="M246.062,-414.192C257.555,-459.119 293.057,-576.558 364.068,-644 370.012,-649.645 377.107,-654.379 384.521,-658.325"/>
<polygon fill="black" stroke="black" points="394.018,-662.91 383.056,-662.615 389.515,-660.736 385.012,-658.562 385.012,-658.562 385.012,-658.562 389.515,-660.736 386.969,-654.51 394.018,-662.91 394.018,-662.91"/>
</g>
<!-- A28 -->
<g id="node29" class="node"><title>A28</title>
<ellipse fill="none" stroke="black" cx="439.377" cy="-617" rx="60.7167" ry="18"/>
<text text-anchor="middle" x="439.377" y="-614" font-family="Helvetica,sans-Serif" font-size="10.00">Remove Grades</text>
</g>
<!-- A9&#45;&gt;A28 -->
<g id="edge31" class="edge"><title>A9&#45;&gt;A28</title>
<path fill="none" stroke="black" stroke-dasharray="5,2" d="M248.413,-414.031C263.292,-451.98 302.845,-540.653 364.068,-590 369.725,-594.56 376.22,-598.389 382.965,-601.593"/>
<polygon fill="black" stroke="black" points="392.261,-605.587 381.297,-605.774 387.667,-603.613 383.073,-601.64 383.073,-601.64 383.073,-601.64 387.667,-603.613 384.849,-597.505 392.261,-605.587 392.261,-605.587"/>
</g>
<!-- A29 -->
<g id="node30" class="node"><title>A29</title>
<ellipse fill="none" stroke="black" cx="439.377" cy="-563" rx="75.1188" ry="18"/>
<text text-anchor="middle" x="439.377" y="-560" font-family="Helvetica,sans-Serif" font-size="10.00">Remove Assignments</text>
</g>
<!-- A9&#45;&gt;A29 -->
<g id="edge32" class="edge"><title>A9&#45;&gt;A29</title>
<path fill="none" stroke="black" stroke-dasharray="5,2" d="M252.777,-413.595C271.968,-442.911 314.278,-501.891 364.068,-536 369.195,-539.513 374.834,-542.627 380.642,-545.375"/>
<polygon fill="black" stroke="black" points="389.86,-549.395 378.895,-549.523 385.277,-547.397 380.694,-545.398 380.694,-545.398 380.694,-545.398 385.277,-547.397 382.493,-541.273 389.86,-549.395 389.86,-549.395"/>
</g>
<!-- A30 -->
<g id="node31" class="node"><title>A30</title>
<ellipse fill="none" stroke="black" cx="439.377" cy="-509" rx="57.7141" ry="18"/>
<text text-anchor="middle" x="439.377" y="-506" font-family="Helvetica,sans-Serif" font-size="10.00">Update Grades</text>
</g>
<!-- A9&#45;&gt;A30 -->
<g id="edge33" class="edge"><title>A9&#45;&gt;A30</title>
<path fill="none" stroke="black" stroke-dasharray="5,2" d="M261.894,-412.688C285.295,-431.466 325.631,-461.956 364.068,-482 371.678,-485.969 380.005,-489.609 388.243,-492.846"/>
<polygon fill="black" stroke="black" points="397.825,-496.455 386.881,-497.141 393.146,-494.692 388.467,-492.93 388.467,-492.93 388.467,-492.93 393.146,-494.692 390.053,-488.719 397.825,-496.455 397.825,-496.455"/>
</g>
<!-- A31 -->
<g id="node32" class="node"><title>A31</title>
<ellipse fill="none" stroke="black" cx="439.377" cy="-455" rx="72.1162" ry="18"/>
<text text-anchor="middle" x="439.377" y="-452" font-family="Helvetica,sans-Serif" font-size="10.00">Update Assignments</text>
</g>
<!-- A9&#45;&gt;A31 -->
<g id="edge34" class="edge"><title>A9&#45;&gt;A31</title>
<path fill="none" stroke="black" stroke-dasharray="5,2" d="M282.025,-408.082C311.042,-416.789 350.571,-428.651 382.623,-438.269"/>
<polygon fill="black" stroke="black" points="392.31,-441.176 381.438,-442.612 387.521,-439.739 382.732,-438.302 382.732,-438.302 382.732,-438.302 387.521,-439.739 384.025,-433.992 392.31,-441.176 392.31,-441.176"/>
</g>
<!-- A32 -->
<g id="node33" class="node"><title>A32</title>
<ellipse fill="none" stroke="black" cx="439.377" cy="-396" rx="62.4658" ry="22.7556"/>
<text text-anchor="middle" x="439.377" y="-399" font-family="Helvetica,sans-Serif" font-size="10.00">Update Class</text>
<text text-anchor="middle" x="439.377" y="-387" font-family="Helvetica,sans-Serif" font-size="10.00">Attendance</text>
</g>
<!-- A9&#45;&gt;A32 -->
<g id="edge35" class="edge"><title>A9&#45;&gt;A32</title>
<path fill="none" stroke="black" stroke-dasharray="5,2" d="M296.27,-396C318.049,-396 343.433,-396 366.673,-396"/>
<polygon fill="black" stroke="black" points="376.831,-396 366.831,-400.5 371.831,-396 366.831,-396 366.831,-396 366.831,-396 371.831,-396 366.831,-391.5 376.831,-396 376.831,-396"/>
</g>
</g>
</svg>
