<?xml version="1.0" encoding="UTF-8" standalone="no"?>
<!DOCTYPE svg PUBLIC "-//W3C//DTD SVG 1.1//EN"
 "http://www.w3.org/Graphics/SVG/1.1/DTD/svg11.dtd">
<!-- Generated by graphviz version 2.38.0 (20140413.2041)
 -->
<!-- Title: G Pages: 1 -->
<svg width="519pt" height="1269pt"
 viewBox="0.00 0.00 519.34 1269.00" xmlns="http://www.w3.org/2000/svg" xmlns:xlink="http://www.w3.org/1999/xlink">
<g id="graph0" class="graph" transform="scale(1 1) rotate(0) translate(4 1265)">
<title>G</title>
<polygon fill="white" stroke="none" points="-4,4 -4,-1265 515.344,-1265 515.344,4 -4,4"/>
<!-- A0 -->
<g id="node1" class="node"><title>A0</title>
<g transform="translate(58.7285,-150)" style="fill:none;stroke:black;stroke-width:1px"><circle cx="0" cy="-20" r="7.5" />
                <line x1="0" y1="-12.5" x2="0" y2="5" />
                <line x1="-15" y1="-5" x2="15" y2="-5" />
                <line x1="0" y1="5" x2="-15" y2="17" />
                <line x1="0" y1="5" x2="15" y2="17" /></g>
<text text-anchor="middle" x="58.7285" y="-125" font-family="Helvetica,sans-Serif" font-size="10.00">Student</text>
</g>
<!-- A3 -->
<g id="node4" class="node"><title>A3</title>
<ellipse fill="none" stroke="black" cx="239.091" cy="-342" rx="31.5864" ry="18"/>
<text text-anchor="middle" x="239.091" y="-339" font-family="Helvetica,sans-Serif" font-size="10.00">Login</text>
</g>
<!-- A0&#45;&gt;A3 -->
<g id="edge1" class="edge"><title>A0&#45;&gt;A3</title>
<path fill="none" stroke="black" d="M75.5142,-189.001C93.1306,-225.376 124.855,-280.933 167.457,-315 179.658,-324.757 195.779,-331.277 209.539,-335.461"/>
</g>
<!-- A4 -->
<g id="node5" class="node"><title>A4</title>
<ellipse fill="none" stroke="black" cx="239.091" cy="-126" rx="60.039" ry="18"/>
<text text-anchor="middle" x="239.091" y="-123" font-family="Helvetica,sans-Serif" font-size="10.00">Enroll in a Class</text>
</g>
<!-- A0&#45;&gt;A4 -->
<g id="edge4" class="edge"><title>A0&#45;&gt;A4</title>
<path fill="none" stroke="black" d="M105.661,-146.047C129.918,-142.375 159.806,-137.851 185.046,-134.03"/>
</g>
<!-- A5 -->
<g id="node6" class="node"><title>A5</title>
<ellipse fill="none" stroke="black" cx="239.091" cy="-234" rx="53.844" ry="18"/>
<text text-anchor="middle" x="239.091" y="-231" font-family="Helvetica,sans-Serif" font-size="10.00">View Courses</text>
</g>
<!-- A0&#45;&gt;A5 -->
<g id="edge5" class="edge"><title>A0&#45;&gt;A5</title>
<path fill="none" stroke="black" d="M105.381,-177.145C124.375,-186.859 146.779,-197.892 167.457,-207 178.51,-211.868 190.742,-216.725 201.877,-220.949"/>
</g>
<!-- A6 -->
<g id="node7" class="node"><title>A6</title>
<ellipse fill="none" stroke="black" cx="239.091" cy="-72" rx="55.0281" ry="18"/>
<text text-anchor="middle" x="239.091" y="-69" font-family="Helvetica,sans-Serif" font-size="10.00">Check Grades</text>
</g>
<!-- A0&#45;&gt;A6 -->
<g id="edge6" class="edge"><title>A0&#45;&gt;A6</title>
<path fill="none" stroke="black" d="M105.381,-128.855C124.375,-119.141 146.779,-108.108 167.457,-99 178.27,-94.2374 190.21,-89.4864 201.149,-85.3275"/>
</g>
<!-- A7 -->
<g id="node8" class="node"><title>A7</title>
<ellipse fill="none" stroke="black" cx="239.091" cy="-180" rx="60.8636" ry="18"/>
<text text-anchor="middle" x="239.091" y="-177" font-family="Helvetica,sans-Serif" font-size="10.00">View Class Files</text>
</g>
<!-- A0&#45;&gt;A7 -->
<g id="edge7" class="edge"><title>A0&#45;&gt;A7</title>
<path fill="none" stroke="black" d="M105.661,-159.953C129.711,-163.594 159.298,-168.072 184.401,-171.873"/>
</g>
<!-- A8 -->
<g id="node9" class="node"><title>A8</title>
<ellipse fill="none" stroke="black" cx="239.091" cy="-18" rx="71.769" ry="18"/>
<text text-anchor="middle" x="239.091" y="-15" font-family="Helvetica,sans-Serif" font-size="10.00">Submit Assignments</text>
</g>
<!-- A0&#45;&gt;A8 -->
<g id="edge8" class="edge"><title>A0&#45;&gt;A8</title>
<path fill="none" stroke="black" d="M88.6371,-116.985C108.733,-93.8687 137.249,-64.6141 167.457,-45 175.275,-39.924 184.189,-35.5867 192.991,-31.9689"/>
</g>
<!-- A1 -->
<g id="node2" class="node"><title>A1</title>
<g transform="translate(58.7285,-312)" style="fill:none;stroke:black;stroke-width:1px"><circle cx="0" cy="-20" r="7.5" />
                <line x1="0" y1="-12.5" x2="0" y2="5" />
                <line x1="-15" y1="-5" x2="15" y2="-5" />
                <line x1="0" y1="5" x2="-15" y2="17" />
                <line x1="0" y1="5" x2="15" y2="17" /></g>
<text text-anchor="middle" x="58.7285" y="-287" font-family="Helvetica,sans-Serif" font-size="10.00">Teacher</text>
</g>
<!-- A1&#45;&gt;A3 -->
<g id="edge2" class="edge"><title>A1&#45;&gt;A3</title>
<path fill="none" stroke="black" d="M106.591,-322.094C138.794,-326.969 180.581,-333.294 208.313,-337.492"/>
</g>
<!-- A1&#45;&gt;A5 -->
<g id="edge21" class="edge"><title>A1&#45;&gt;A5</title>
<path fill="none" stroke="black" d="M106.44,-290.314C125.204,-280.733 147.162,-269.939 167.457,-261 178.51,-256.132 190.742,-251.275 201.877,-247.051"/>
</g>
<!-- A1&#45;&gt;A7 -->
<g id="edge24" class="edge"><title>A1&#45;&gt;A7</title>
<path fill="none" stroke="black" d="M88.6371,-278.985C108.733,-255.869 137.249,-226.614 167.457,-207 176.156,-201.352 186.212,-196.619 195.96,-192.773"/>
</g>
<!-- A10 -->
<g id="node11" class="node"><title>A10</title>
<ellipse fill="none" stroke="black" cx="239.091" cy="-450" rx="55.0269" ry="18"/>
<text text-anchor="middle" x="239.091" y="-447" font-family="Helvetica,sans-Serif" font-size="10.00">Manage Class</text>
</g>
<!-- A1&#45;&gt;A10 -->
<g id="edge20" class="edge"><title>A1&#45;&gt;A10</title>
<path fill="none" stroke="black" d="M88.6371,-351.015C108.733,-374.131 137.249,-403.386 167.457,-423 176.706,-429.005 187.49,-433.977 197.807,-437.946"/>
</g>
<!-- A20 -->
<g id="node21" class="node"><title>A20</title>
<ellipse fill="none" stroke="black" cx="239.091" cy="-396" rx="66.8999" ry="18"/>
<text text-anchor="middle" x="239.091" y="-393" font-family="Helvetica,sans-Serif" font-size="10.00">Upload Class Files</text>
</g>
<!-- A1&#45;&gt;A20 -->
<g id="edge22" class="edge"><title>A1&#45;&gt;A20</title>
<path fill="none" stroke="black" d="M106.44,-339.686C125.204,-349.267 147.162,-360.061 167.457,-369 177.309,-373.339 188.097,-377.669 198.21,-381.55"/>
</g>
<!-- A21 -->
<g id="node22" class="node"><title>A21</title>
<ellipse fill="none" stroke="black" cx="239.091" cy="-288" rx="65.0572" ry="18"/>
<text text-anchor="middle" x="239.091" y="-285" font-family="Helvetica,sans-Serif" font-size="10.00">Delete Class Files</text>
</g>
<!-- A1&#45;&gt;A21 -->
<g id="edge23" class="edge"><title>A1&#45;&gt;A21</title>
<path fill="none" stroke="black" d="M106.591,-307.906C129.505,-304.437 157.271,-300.234 181.373,-296.586"/>
</g>
<!-- A2 -->
<g id="node3" class="node"><title>A2</title>
<g transform="translate(58.7285,-447)" style="fill:none;stroke:black;stroke-width:1px"><circle cx="0" cy="-20" r="7.5" />
                <line x1="0" y1="-12.5" x2="0" y2="5" />
                <line x1="-15" y1="-5" x2="15" y2="-5" />
                <line x1="0" y1="5" x2="-15" y2="17" />
                <line x1="0" y1="5" x2="15" y2="17" /></g>
<text text-anchor="middle" x="58.7285" y="-422" font-family="Helvetica,sans-Serif" font-size="10.00">Administrator</text>
</g>
<!-- A2&#45;&gt;A3 -->
<g id="edge3" class="edge"><title>A2&#45;&gt;A3</title>
<path fill="none" stroke="black" d="M101.867,-413.979C121.032,-398.766 144.519,-381.677 167.457,-369 181.13,-361.443 197.354,-355.077 210.803,-350.429"/>
</g>
<!-- A9 -->
<g id="node10" class="node"><title>A9</title>
<ellipse fill="none" stroke="black" cx="239.091" cy="-1000" rx="65.9287" ry="18"/>
<text text-anchor="middle" x="239.091" y="-997" font-family="Helvetica,sans-Serif" font-size="10.00">Manage Database</text>
</g>
<!-- A2&#45;&gt;A9 -->
<g id="edge9" class="edge"><title>A2&#45;&gt;A9</title>
<path fill="none" stroke="black" d="M71.4314,-486.087C105.997,-592.674 206.805,-903.526 232.22,-981.896"/>
</g>
<!-- A2&#45;&gt;A10 -->
<g id="edge10" class="edge"><title>A2&#45;&gt;A10</title>
<path fill="none" stroke="black" d="M117.638,-450C138.897,-450 162.872,-450 183.802,-450"/>
</g>
<!-- A34 -->
<g id="node35" class="node"><title>A34</title>
<ellipse fill="none" stroke="black" cx="436.035" cy="-89" rx="35.4469" ry="18"/>
<text text-anchor="middle" x="436.035" y="-86" font-family="Helvetica,sans-Serif" font-size="10.00">Logout</text>
</g>
<!-- A3&#45;&gt;A34 -->
<g id="edge37" class="edge"><title>A3&#45;&gt;A34</title>
<path fill="none" stroke="black" stroke-dasharray="5,2" d="M269.861,-337.212C284.094,-333.451 300.268,-326.782 310.726,-315 371.262,-246.798 299.625,-183.698 360.726,-116 368.988,-106.845 380.604,-100.791 392.201,-96.788"/>
<polygon fill="black" stroke="black" points="401.865,-93.8852 393.582,-101.072 397.076,-95.3237 392.287,-96.7622 392.287,-96.7622 392.287,-96.7622 397.076,-95.3237 390.993,-92.4524 401.865,-93.8852 401.865,-93.8852"/>
</g>
<!-- A11 -->
<g id="node12" class="node"><title>A11</title>
<ellipse fill="none" stroke="black" cx="436.035" cy="-1081" rx="44.4737" ry="18"/>
<text text-anchor="middle" x="436.035" y="-1078" font-family="Helvetica,sans-Serif" font-size="10.00">Add Class</text>
</g>
<!-- A9&#45;&gt;A11 -->
<g id="edge11" class="edge"><title>A9&#45;&gt;A11</title>
<path fill="none" stroke="black" stroke-dasharray="5,2" d="M273.096,-1015.55C297.187,-1026.71 330.737,-1041.86 360.726,-1054 370.753,-1058.06 381.649,-1062.18 391.929,-1065.94"/>
<polygon fill="black" stroke="black" points="401.547,-1069.41 390.613,-1070.25 396.845,-1067.71 392.143,-1066.01 392.143,-1066.01 392.143,-1066.01 396.845,-1067.71 393.673,-1061.78 401.547,-1069.41 401.547,-1069.41"/>
</g>
<!-- A12 -->
<g id="node13" class="node"><title>A12</title>
<ellipse fill="none" stroke="black" cx="436.035" cy="-1027" rx="51.0172" ry="18"/>
<text text-anchor="middle" x="436.035" y="-1024" font-family="Helvetica,sans-Serif" font-size="10.00">Add Teacher</text>
</g>
<!-- A9&#45;&gt;A12 -->
<g id="edge12" class="edge"><title>A9&#45;&gt;A12</title>
<path fill="none" stroke="black" stroke-dasharray="5,2" d="M298.317,-1008.06C323.56,-1011.56 353.02,-1015.64 378.115,-1019.12"/>
<polygon fill="black" stroke="black" points="388.217,-1020.52 377.694,-1023.6 383.264,-1019.83 378.312,-1019.14 378.312,-1019.14 378.312,-1019.14 383.264,-1019.83 378.929,-1014.69 388.217,-1020.52 388.217,-1020.52"/>
</g>
<!-- A13 -->
<g id="node14" class="node"><title>A13</title>
<ellipse fill="none" stroke="black" cx="436.035" cy="-973" rx="49.8571" ry="18"/>
<text text-anchor="middle" x="436.035" y="-970" font-family="Helvetica,sans-Serif" font-size="10.00">Add Student</text>
</g>
<!-- A9&#45;&gt;A13 -->
<g id="edge13" class="edge"><title>A9&#45;&gt;A13</title>
<path fill="none" stroke="black" stroke-dasharray="5,2" d="M298.317,-991.936C323.856,-988.398 353.711,-984.263 378.996,-980.762"/>
<polygon fill="black" stroke="black" points="389.163,-979.353 379.875,-985.183 384.211,-980.039 379.258,-980.725 379.258,-980.725 379.258,-980.725 384.211,-980.039 378.64,-976.268 389.163,-979.353 389.163,-979.353"/>
</g>
<!-- A14 -->
<g id="node15" class="node"><title>A14</title>
<ellipse fill="none" stroke="black" cx="436.035" cy="-919" rx="52.8476" ry="18"/>
<text text-anchor="middle" x="436.035" y="-916" font-family="Helvetica,sans-Serif" font-size="10.00">Update Class</text>
</g>
<!-- A9&#45;&gt;A14 -->
<g id="edge14" class="edge"><title>A9&#45;&gt;A14</title>
<path fill="none" stroke="black" stroke-dasharray="5,2" d="M273.096,-984.45C297.187,-973.29 330.737,-958.142 360.726,-946 369.696,-942.368 379.362,-938.689 388.66,-935.263"/>
<polygon fill="black" stroke="black" points="398.172,-931.798 390.316,-939.449 393.474,-933.51 388.776,-935.221 388.776,-935.221 388.776,-935.221 393.474,-933.51 387.236,-930.993 398.172,-931.798 398.172,-931.798"/>
</g>
<!-- A15 -->
<g id="node16" class="node"><title>A15</title>
<ellipse fill="none" stroke="black" cx="436.035" cy="-865" rx="59.8912" ry="18"/>
<text text-anchor="middle" x="436.035" y="-862" font-family="Helvetica,sans-Serif" font-size="10.00">Update Teacher</text>
</g>
<!-- A9&#45;&gt;A15 -->
<g id="edge15" class="edge"><title>A9&#45;&gt;A15</title>
<path fill="none" stroke="black" stroke-dasharray="5,2" d="M255.634,-982.395C277.175,-958.928 318.275,-917.409 360.726,-892 367.516,-887.936 375.017,-884.332 382.564,-881.189"/>
<polygon fill="black" stroke="black" points="392.099,-877.453 384.43,-885.291 387.443,-879.277 382.788,-881.101 382.788,-881.101 382.788,-881.101 387.443,-879.277 381.146,-876.911 392.099,-877.453 392.099,-877.453"/>
</g>
<!-- A16 -->
<g id="node17" class="node"><title>A16</title>
<ellipse fill="none" stroke="black" cx="436.035" cy="-811" rx="58.7322" ry="18"/>
<text text-anchor="middle" x="436.035" y="-808" font-family="Helvetica,sans-Serif" font-size="10.00">Update Student</text>
</g>
<!-- A9&#45;&gt;A16 -->
<g id="edge16" class="edge"><title>A9&#45;&gt;A16</title>
<path fill="none" stroke="black" stroke-dasharray="5,2" d="M248.946,-981.964C266.073,-948.849 306.848,-878.082 360.726,-838 366.783,-833.494 373.667,-829.678 380.744,-826.463"/>
<polygon fill="black" stroke="black" points="390.453,-822.444 382.935,-830.426 385.833,-824.356 381.213,-826.269 381.213,-826.269 381.213,-826.269 385.833,-824.356 379.492,-822.111 390.453,-822.444 390.453,-822.444"/>
</g>
<!-- A17 -->
<g id="node18" class="node"><title>A17</title>
<ellipse fill="none" stroke="black" cx="436.035" cy="-1243" rx="55.8501" ry="18"/>
<text text-anchor="middle" x="436.035" y="-1240" font-family="Helvetica,sans-Serif" font-size="10.00">Remove Class</text>
</g>
<!-- A9&#45;&gt;A17 -->
<g id="edge17" class="edge"><title>A9&#45;&gt;A17</title>
<path fill="none" stroke="black" stroke-dasharray="5,2" d="M245.394,-1018.19C258.288,-1059.31 295.136,-1160.19 360.726,-1216 366.68,-1221.07 373.662,-1225.21 380.921,-1228.6"/>
<polygon fill="black" stroke="black" points="390.207,-1232.5 379.245,-1232.78 385.597,-1230.56 380.986,-1228.63 380.986,-1228.63 380.986,-1228.63 385.597,-1230.56 382.727,-1224.48 390.207,-1232.5 390.207,-1232.5"/>
</g>
<!-- A18 -->
<g id="node19" class="node"><title>A18</title>
<ellipse fill="none" stroke="black" cx="436.035" cy="-1189" rx="62.8937" ry="18"/>
<text text-anchor="middle" x="436.035" y="-1186" font-family="Helvetica,sans-Serif" font-size="10.00">Remove Teacher</text>
</g>
<!-- A9&#45;&gt;A18 -->
<g id="edge18" class="edge"><title>A9&#45;&gt;A18</title>
<path fill="none" stroke="black" stroke-dasharray="5,2" d="M248.946,-1018.04C266.073,-1051.15 306.848,-1121.92 360.726,-1162 366.48,-1166.28 372.981,-1169.94 379.684,-1173.05"/>
<polygon fill="black" stroke="black" points="388.898,-1176.96 377.935,-1177.2 384.296,-1175.01 379.693,-1173.05 379.693,-1173.05 379.693,-1173.05 384.296,-1175.01 381.451,-1168.91 388.898,-1176.96 388.898,-1176.96"/>
</g>
<!-- A19 -->
<g id="node20" class="node"><title>A19</title>
<ellipse fill="none" stroke="black" cx="436.035" cy="-1135" rx="61.7348" ry="18"/>
<text text-anchor="middle" x="436.035" y="-1132" font-family="Helvetica,sans-Serif" font-size="10.00">Remove Student</text>
</g>
<!-- A9&#45;&gt;A19 -->
<g id="edge19" class="edge"><title>A9&#45;&gt;A19</title>
<path fill="none" stroke="black" stroke-dasharray="5,2" d="M255.634,-1017.6C277.175,-1041.07 318.275,-1082.59 360.726,-1108 367.433,-1112.01 374.834,-1115.58 382.288,-1118.7"/>
<polygon fill="black" stroke="black" points="391.71,-1122.4 380.757,-1122.93 387.057,-1120.57 382.404,-1118.74 382.404,-1118.74 382.404,-1118.74 387.057,-1120.57 384.052,-1114.55 391.71,-1122.4 391.71,-1122.4"/>
</g>
<!-- A22 -->
<g id="node23" class="node"><title>A22</title>
<ellipse fill="none" stroke="black" cx="436.035" cy="-251" rx="49.4883" ry="18"/>
<text text-anchor="middle" x="436.035" y="-248" font-family="Helvetica,sans-Serif" font-size="10.00">View Roster</text>
</g>
<!-- A10&#45;&gt;A22 -->
<g id="edge25" class="edge"><title>A10&#45;&gt;A22</title>
<path fill="none" stroke="black" stroke-dasharray="5,2" d="M284.723,-439.666C294.267,-435.741 303.606,-430.359 310.726,-423 358.125,-374.008 312.922,-326.597 360.726,-278 366.95,-271.672 374.771,-266.819 382.985,-263.098"/>
<polygon fill="black" stroke="black" points="392.362,-259.361 384.739,-267.243 387.717,-261.212 383.073,-263.063 383.073,-263.063 383.073,-263.063 387.717,-261.212 381.406,-258.883 392.362,-259.361 392.362,-259.361"/>
</g>
<!-- A23 -->
<g id="node24" class="node"><title>A23</title>
<ellipse fill="none" stroke="black" cx="436.035" cy="-197" rx="51.0052" ry="18"/>
<text text-anchor="middle" x="436.035" y="-194" font-family="Helvetica,sans-Serif" font-size="10.00">View Grades</text>
</g>
<!-- A10&#45;&gt;A23 -->
<g id="edge26" class="edge"><title>A10&#45;&gt;A23</title>
<path fill="none" stroke="black" stroke-dasharray="5,2" d="M285.557,-439.947C294.951,-436.015 304.015,-430.56 310.726,-423 371.262,-354.798 299.625,-291.698 360.726,-224 366.222,-217.91 373.202,-213.192 380.674,-209.537"/>
<polygon fill="black" stroke="black" points="390.326,-205.453 382.87,-213.495 385.721,-207.402 381.116,-209.35 381.116,-209.35 381.116,-209.35 385.721,-207.402 379.363,-205.206 390.326,-205.453 390.326,-205.453"/>
</g>
<!-- A24 -->
<g id="node25" class="node"><title>A24</title>
<ellipse fill="none" stroke="black" cx="436.035" cy="-143" rx="65.9059" ry="18"/>
<text text-anchor="middle" x="436.035" y="-140" font-family="Helvetica,sans-Serif" font-size="10.00">View Assignments</text>
</g>
<!-- A10&#45;&gt;A24 -->
<g id="edge27" class="edge"><title>A10&#45;&gt;A24</title>
<path fill="none" stroke="black" stroke-dasharray="5,2" d="M285.843,-440.195C295.224,-436.251 304.21,-430.729 310.726,-423 384.601,-335.364 286.126,-257.02 360.726,-170 364.56,-165.527 369.198,-161.795 374.261,-158.681"/>
<polygon fill="black" stroke="black" points="383.119,-154.003 376.378,-162.652 378.697,-156.338 374.276,-158.673 374.276,-158.673 374.276,-158.673 378.697,-156.338 372.175,-154.694 383.119,-154.003 383.119,-154.003"/>
</g>
<!-- A25 -->
<g id="node26" class="node"><title>A25</title>
<ellipse fill="none" stroke="black" cx="436.035" cy="-757" rx="61.9069" ry="18"/>
<text text-anchor="middle" x="436.035" y="-754" font-family="Helvetica,sans-Serif" font-size="10.00">View Attendance</text>
</g>
<!-- A10&#45;&gt;A25 -->
<g id="edge28" class="edge"><title>A10&#45;&gt;A25</title>
<path fill="none" stroke="black" stroke-dasharray="5,2" d="M242.838,-468.226C251.199,-517.487 280.833,-654.634 360.726,-730 365.623,-734.62 371.371,-738.46 377.465,-741.651"/>
<polygon fill="black" stroke="black" points="386.58,-745.875 375.615,-745.753 382.044,-743.773 377.507,-741.67 377.507,-741.67 377.507,-741.67 382.044,-743.773 379.399,-737.587 386.58,-745.875 386.58,-745.875"/>
</g>
<!-- A26 -->
<g id="node27" class="node"><title>A26</title>
<ellipse fill="none" stroke="black" cx="436.035" cy="-703" rx="48.839" ry="18"/>
<text text-anchor="middle" x="436.035" y="-700" font-family="Helvetica,sans-Serif" font-size="10.00">Add Grades</text>
</g>
<!-- A10&#45;&gt;A26 -->
<g id="edge29" class="edge"><title>A10&#45;&gt;A26</title>
<path fill="none" stroke="black" stroke-dasharray="5,2" d="M244.87,-468.067C256.985,-510.453 292.858,-617.132 360.726,-676 367.506,-681.881 375.671,-686.52 384.071,-690.166"/>
<polygon fill="black" stroke="black" points="393.593,-693.875 382.641,-694.439 388.934,-692.061 384.275,-690.246 384.275,-690.246 384.275,-690.246 388.934,-692.061 385.908,-686.053 393.593,-693.875 393.593,-693.875"/>
</g>
<!-- A27 -->
<g id="node28" class="node"><title>A27</title>
<ellipse fill="none" stroke="black" cx="436.035" cy="-649" rx="63.7409" ry="18"/>
<text text-anchor="middle" x="436.035" y="-646" font-family="Helvetica,sans-Serif" font-size="10.00">Add Assignments</text>
</g>
<!-- A10&#45;&gt;A27 -->
<g id="edge30" class="edge"><title>A10&#45;&gt;A27</title>
<path fill="none" stroke="black" stroke-dasharray="5,2" d="M248.008,-467.806C264.243,-502.377 304.561,-578.962 360.726,-622 366.216,-626.207 372.424,-629.804 378.854,-632.868"/>
<polygon fill="black" stroke="black" points="388.377,-636.985 377.412,-637.147 383.788,-635.001 379.198,-633.016 379.198,-633.016 379.198,-633.016 383.788,-635.001 380.984,-628.886 388.377,-636.985 388.377,-636.985"/>
</g>
<!-- A28 -->
<g id="node29" class="node"><title>A28</title>
<ellipse fill="none" stroke="black" cx="436.035" cy="-590" rx="55.6304" ry="22.7556"/>
<text text-anchor="middle" x="436.035" y="-593" font-family="Helvetica,sans-Serif" font-size="10.00">Add Class</text>
<text text-anchor="middle" x="436.035" y="-581" font-family="Helvetica,sans-Serif" font-size="10.00">Attendance</text>
</g>
<!-- A10&#45;&gt;A28 -->
<g id="edge31" class="edge"><title>A10&#45;&gt;A28</title>
<path fill="none" stroke="black" stroke-dasharray="5,2" d="M255.855,-467.247C277.648,-490.308 319.031,-531.368 360.726,-558 368.122,-562.724 376.335,-567.049 384.525,-570.887"/>
<polygon fill="black" stroke="black" points="393.717,-575.01 382.752,-575.024 389.155,-572.964 384.593,-570.918 384.593,-570.918 384.593,-570.918 389.155,-572.964 386.435,-566.812 393.717,-575.01 393.717,-575.01"/>
</g>
<!-- A29 -->
<g id="node30" class="node"><title>A29</title>
<ellipse fill="none" stroke="black" cx="436.035" cy="-531" rx="60.7167" ry="18"/>
<text text-anchor="middle" x="436.035" y="-528" font-family="Helvetica,sans-Serif" font-size="10.00">Remove Grades</text>
</g>
<!-- A10&#45;&gt;A29 -->
<g id="edge32" class="edge"><title>A10&#45;&gt;A29</title>
<path fill="none" stroke="black" stroke-dasharray="5,2" d="M271.571,-464.843C295.757,-476.064 330.098,-491.6 360.726,-504 368.953,-507.331 377.765,-510.702 386.342,-513.88"/>
<polygon fill="black" stroke="black" points="395.881,-517.374 384.943,-518.16 391.186,-515.654 386.491,-513.935 386.491,-513.935 386.491,-513.935 391.186,-515.654 388.039,-509.709 395.881,-517.374 395.881,-517.374"/>
</g>
<!-- A30 -->
<g id="node31" class="node"><title>A30</title>
<ellipse fill="none" stroke="black" cx="436.035" cy="-477" rx="75.1188" ry="18"/>
<text text-anchor="middle" x="436.035" y="-474" font-family="Helvetica,sans-Serif" font-size="10.00">Remove Assignments</text>
</g>
<!-- A10&#45;&gt;A30 -->
<g id="edge33" class="edge"><title>A10&#45;&gt;A30</title>
<path fill="none" stroke="black" stroke-dasharray="5,2" d="M290.294,-456.953C311.616,-459.906 336.919,-463.411 360.359,-466.657"/>
<polygon fill="black" stroke="black" points="370.274,-468.03 359.751,-471.116 365.321,-467.344 360.368,-466.658 360.368,-466.658 360.368,-466.658 365.321,-467.344 360.986,-462.201 370.274,-468.03 370.274,-468.03"/>
</g>
<!-- A31 -->
<g id="node32" class="node"><title>A31</title>
<ellipse fill="none" stroke="black" cx="436.035" cy="-423" rx="57.7141" ry="18"/>
<text text-anchor="middle" x="436.035" y="-420" font-family="Helvetica,sans-Serif" font-size="10.00">Update Grades</text>
</g>
<!-- A10&#45;&gt;A31 -->
<g id="edge34" class="edge"><title>A10&#45;&gt;A31</title>
<path fill="none" stroke="black" stroke-dasharray="5,2" d="M290.294,-443.047C315.503,-439.555 346.277,-435.293 372.957,-431.598"/>
<polygon fill="black" stroke="black" points="382.962,-430.212 373.674,-436.042 378.009,-430.898 373.056,-431.584 373.056,-431.584 373.056,-431.584 378.009,-430.898 372.439,-427.127 382.962,-430.212 382.962,-430.212"/>
</g>
<!-- A32 -->
<g id="node33" class="node"><title>A32</title>
<ellipse fill="none" stroke="black" cx="436.035" cy="-369" rx="72.1162" ry="18"/>
<text text-anchor="middle" x="436.035" y="-366" font-family="Helvetica,sans-Serif" font-size="10.00">Update Assignments</text>
</g>
<!-- A10&#45;&gt;A32 -->
<g id="edge35" class="edge"><title>A10&#45;&gt;A32</title>
<path fill="none" stroke="black" stroke-dasharray="5,2" d="M277.127,-436.88C288.068,-432.727 299.986,-427.927 310.726,-423 333.681,-412.469 337.684,-406.34 360.726,-396 367.77,-392.839 375.306,-389.763 382.778,-386.888"/>
<polygon fill="black" stroke="black" points="392.166,-383.363 384.387,-391.091 387.485,-385.121 382.805,-386.879 382.805,-386.879 382.805,-386.879 387.485,-385.121 381.222,-382.666 392.166,-383.363 392.166,-383.363"/>
</g>
<!-- A33 -->
<g id="node34" class="node"><title>A33</title>
<ellipse fill="none" stroke="black" cx="436.035" cy="-310" rx="62.4658" ry="22.7556"/>
<text text-anchor="middle" x="436.035" y="-313" font-family="Helvetica,sans-Serif" font-size="10.00">Update Class</text>
<text text-anchor="middle" x="436.035" y="-301" font-family="Helvetica,sans-Serif" font-size="10.00">Attendance</text>
</g>
<!-- A10&#45;&gt;A33 -->
<g id="edge36" class="edge"><title>A10&#45;&gt;A33</title>
<path fill="none" stroke="black" stroke-dasharray="5,2" d="M282.871,-438.758C292.703,-434.845 302.635,-429.697 310.726,-423 343.316,-396.024 328.703,-369.647 360.726,-342 366.281,-337.204 372.664,-333.032 379.306,-329.431"/>
<polygon fill="black" stroke="black" points="388.469,-324.867 381.524,-333.353 383.993,-327.096 379.518,-329.325 379.518,-329.325 379.518,-329.325 383.993,-327.096 377.512,-325.297 388.469,-324.867 388.469,-324.867"/>
</g>
</g>
</svg>
